<svg xmlns="http://www.w3.org/2000/svg" viewBox="0 0 64 64"><path d="M22.4679 26.5C22.4679 23.849 24.617 21.7 27.2679 21.7C29.9189 21.7 32.0679 23.849 32.0679 26.5V26.7773C32.0679 28.0403 31.5972 29.258 30.7475 30.1926L17.7679 44.4702V48.3H38.0679V42.3H27.8496L35.1872 34.2286C37.0408 32.1896 38.0679 29.5329 38.0679 26.7773V26.5C38.0679 20.5353 33.2326 15.7 27.2679 15.7C21.3033 15.7 16.4679 20.5353 16.4679 26.5V27H22.4679V26.5Z M46.8539 26.1087C46.8539 23.6749 48.8313 21.7 51.218 21.7H51.9321C53.9479 21.7 55.5821 23.3342 55.5821 25.35C55.5821 27.3658 53.9479 29 51.9321 29H49.5666V35H51.9321C53.9479 35 55.5821 36.6342 55.5821 38.65C55.5821 40.6658 53.9479 42.3 51.9321 42.3H51.218C48.8313 42.3 46.8539 40.3251 46.8539 37.8913H40.8539C40.8539 43.5916 45.4705 48.3 51.218 48.3H51.9321C57.2616 48.3 61.5821 43.9795 61.5821 38.65C61.5821 36.0724 60.5715 33.7309 58.9249 32C60.5715 30.2691 61.5821 27.9276 61.5821 25.35C61.5821 20.0205 57.2616 15.7 51.9321 15.7H51.218C45.4705 15.7 40.8539 20.4084 40.8539 26.1087H46.8539Z M2.41794 20.85L7.16794 16.1H13.1679L13.1679 48.3H7.16794L7.16794 24.3662H2.41794V20.85Z"/></svg>