<svg xmlns="http://www.w3.org/2000/svg"  viewBox="0 0 64 64"><defs /><path  d="m54,34c0-3.64-.89-7.07-2.45-10.09l3.28-3.28c1.56-1.56,1.56-4.09,0-5.66l-5.66-5.66c-1.56-1.56-4.09-1.56-5.66,0l-4.01,4.01c-2.34-.85-4.87-1.32-7.51-1.32s-5.09.45-7.41,1.28l-3.97-3.97c-1.75-1.75-3.91-1.75-5.66,0l-5.66,5.66c-1.75,1.75-1.75,3.91,0,5.66l3.19,3.19c-1.59,3.05-2.5,6.51-2.5,10.19,0,4.48,1.34,8.64,3.64,12.12l-5.64,5.64,4.24,4.24,5.37-5.37c3.86,3.34,8.89,5.37,14.39,5.37s10.53-2.03,14.39-5.37l5.37,5.37,4.24-4.24-5.64-5.64c2.3-3.48,3.64-7.64,3.64-12.12Zm-19,4h-15v-6h9v-12h6v18Z" /></svg>