<svg xmlns="http://www.w3.org/2000/svg"  viewBox="0 0 64 64"><defs /><path  d="m54,20l4-14-14,4v7.17l-3.09,3.09c-4.07-3.56-9.06-5.97-13.97-6.24-2.97-.16-5.87.43-8.59,1.68-.45.21-.79.29-1.29.29h0c-1.88,0-3.05-1.17-3.05-3.05v-.95h-6v3.51c0,2.37.67,3.98,2.34,5.66l14.83,14.83-4,4h-7.17l-8,8v4h6v6h4l8-8v-7.17l4-4,14.83,14.83c1.68,1.68,3.29,2.34,5.66,2.34h3.51v-6h-.95c-1.88,0-3.05-1.17-3.05-3.05h0c0-.5.09-.84.3-1.29,1.25-2.73,1.84-5.62,1.68-8.6-.26-4.91-2.67-9.9-6.24-13.97l3.09-3.09h7.17Zm-36.16,3.01c2.71-2.11,5.71-3.15,8.78-2.99,3.37.18,6.95,1.96,9.99,4.54l-8.61,8.61-10.16-10.16Zm26.15,14.37c.16,3.07-.88,6.07-2.99,8.78l-10.16-10.16,8.61-8.61c2.58,3.04,4.36,6.63,4.54,9.99Z" /></svg>