<svg xmlns="http://www.w3.org/2000/svg" viewBox="0 0 64 64"><path d="M33.1168 41.8H30.6598L22.3956 27.2818C22.619 26.8351 22.7865 26.5559 22.954 26.2767C23.1216 25.9975 23.2891 25.7183 23.5124 25.2716L40.4875 25.2716C40.7109 25.7183 40.8784 25.9975 41.0459 26.2767C41.2134 26.5559 41.3809 26.8351 41.6043 27.2818L33.1168 41.8Z M8 32C8 18.75 18.75 8 32 8C45.25 8 56 18.75 56 32C56 45.25 45.25 56 32 56C18.75 56 8 45.25 8 32ZM50 32C50 22.0625 41.9375 14 32 14C22.0625 14 14 22.0625 14 32C14 41.9375 22.0625 50 32 50C41.9375 50 50 41.9375 50 32Z" /></svg>