<svg xmlns="http://www.w3.org/2000/svg"  viewBox="0 0 64 64"><defs /><path  d="m56,24.5c1.31-.33,2-1.21,2-2.56v-11.94h-11.94c-1.35,0-2.23.69-2.56,2-.33,1.31-1.21,2-2.56,2s-2.23-.69-2.56-2l-1.5-6h-9.75l-1.5,6c-.33,1.31-1.21,2-2.56,2s-2.23-.69-2.56-2c-.33-1.31-1.21-2-2.56-2H6v11.94c0,1.35.69,2.23,2,2.56s2,1.21,2,2.56v9.88c0,1.35-.69,2.23-2,2.56s-2,1.21-2,2.56v11.94h11.94c1.35,0,2.23-.69,2.56-2,.33-1.31,1.21-2,2.56-2h17.88c1.35,0,2.23.69,2.56,2,.33,1.31,1.21,2,2.56,2h11.94v-11.94c0-1.35-.69-2.23-2-2.56s-2-1.21-2-2.56v-9.88c0-1.35.69-2.23,2-2.56Zm-8,19.5H16v-24h32v24Z" /></svg>