<svg xmlns="http://www.w3.org/2000/svg"  viewBox="0 0 64 64"><defs /><path  d="m44,8c-3.07,0-6.14,1.17-8.49,3.51l-17.64,17.64,2.12,2.12-6.8,6.8c-2.05,2.05-3.08,4.74-3.08,7.42,0,5.8,4.7,10.5,10.5,10.5,2.69,0,5.37-1.03,7.42-3.08l24.44-24.44c2.34-2.34,3.51-5.41,3.51-8.49,0-6.63-5.37-12-12-12Zm-20.2,40.68c-.88.88-2.03,1.32-3.18,1.32-2.49,0-4.5-2.01-4.5-4.5,0-1.15.44-2.3,1.32-3.18l15.44-15.44c.59-.59,1.35-.88,2.12-.88,1.66,0,3,1.34,3,3,0,.77-.29,1.54-.88,2.12l-8.64,8.64,2.12,2.12-6.8,6.8Zm24.44-24.44l-4.27,4.27c-.25-4.58-3.91-8.24-8.49-8.49l4.27-4.27c1.17-1.17,2.71-1.76,4.24-1.76,3.31,0,6,2.69,6,6,0,1.54-.59,3.07-1.76,4.24Z" /></svg>