<svg xmlns="http://www.w3.org/2000/svg"  viewBox="0 0 64 64"><defs /><path  d="m56,11.1c0-1.53-1.57-3.1-3.1-3.1-.73,0-1.47.33-2.12.98l-2.72,2.72c-1.75-1.13-3.59-1.69-5.44-1.69-2.1,0-4.2.73-6.16,2.2l-2.21-2.21-4.24,4.24,2.81,2.81-2.95,2.95h-2.54c-2.37,0-3.98.67-5.66,2.34l-11.04,11.04c-1.75,1.75-2.62,3.7-2.62,5.66s.87,3.91,2.62,5.66l8.69,8.69c1.75,1.75,3.7,2.62,5.66,2.62s3.91-.87,5.66-2.62l11.04-11.04c1.68-1.68,2.34-3.29,2.34-5.66v-2.54l2.95-2.95,2.81,2.81,4.24-4.24-2.21-2.21c1.47-1.96,2.2-4.06,2.2-6.16,0-1.84-.56-3.69-1.69-5.44l2.72-2.72c.65-.65.98-1.39.98-2.12Zm-16.34,18.9h-17.17l3.41-3.41c.42-.42.82-.59,1.41-.59h4.2c.59,0,1-.17,1.41-.59l4.12-4.12,5.66,5.66-3.05,3.05Z" /></svg>