<svg xmlns="http://www.w3.org/2000/svg"  viewBox="0 0 64 64"><defs /><path  d="m25,15c0-3.87,3.13-7,7-7s7,3.13,7,7-3.13,7-7,7-7-3.13-7-7Zm13.65,12.01c-2.2-1.47-4.01-2.01-6.65-2.01s-4.45.55-6.65,2.01l-9.35,6.23,2.77,4.16,5.23-3.48v4.08h16v-4.08l5.23,3.48,2.77-4.16-9.35-6.23Zm-14.89,13.99l-3.34,3.34c-1.01,1.01-1.41,1.98-1.41,3.41s.4,2.4,1.41,3.41l4.83,4.83,3.54-3.54-3-3,3.22-3.22-5.24-5.24Zm16.48,0l-5.24,5.24,3.22,3.22-3,3,3.54,3.54,4.83-4.83c1.01-1.01,1.41-1.98,1.41-3.41s-.4-2.4-1.41-3.41l-3.34-3.34Z" /></svg>