<svg xmlns="http://www.w3.org/2000/svg"  viewBox="0 0 64 64"><defs /><path  d="m16,16v30c-4.94,0-8-3.06-8-8v-14c0-4.94,3.06-8,8-8Zm28,30h-24V12c0-4.94,3.06-8,8-8h8c4.94,0,8,3.06,8,8v34Zm-6-34c0-1.63-.37-2-2-2h-8c-1.63,0-2,.37-2,2v4h12v-4ZM12,50c-1.66,0-3,1.34-3,3s1.34,3,3,3,3-1.34,3-3-1.34-3-3-3Zm10,0c-1.66,0-3,1.34-3,3s1.34,3,3,3,3-1.34,3-3-1.34-3-3-3Zm26-34v30c4.94,0,8-3.06,8-8v-14c0-4.94-3.06-8-8-8Zm4,34c-1.66,0-3,1.34-3,3s1.34,3,3,3,3-1.34,3-3-1.34-3-3-3Zm-10,0c-1.66,0-3,1.34-3,3s1.34,3,3,3,3-1.34,3-3-1.34-3-3-3Zm-10,0c-1.66,0-3,1.34-3,3s1.34,3,3,3,3-1.34,3-3-1.34-3-3-3Z" /></svg>