<svg xmlns="http://www.w3.org/2000/svg"  viewBox="0 0 64 64"><defs /><path  d="m18.03,27.99c-2.01-2.27-2.75-3.98-2.75-3.98l2.72-3.01c6.26,3.34,11.53,4.45,15.53,4.01-.44.45-.9.85-1.42,1.17-2.25,1.4-5.49,2.14-9.38,2.14-1.49,0-3.06-.11-4.71-.32Zm-2.68,11.75c10.58-.95,15.64-4.39,17.82-6.57,1.37-1.37,2.27-3.18,2.98-5.13-.58.57-1.21,1.08-1.92,1.53-4.49,2.8-11.91,3.77-21.99,1.43l-2.24,4.38s1.67,2.1,5.35,4.36Zm40.31-16c-1.57-9.94-8-17.74-8-17.74l-6,3s4.13,2.89,6.23,7.08c-7.63,1.06-5.16,13.2-11.88,19.92-4.7,4.7-13.5,8-26.5,8l-1.5,6s7.48,6,22,6c13.49,0,26-12,26-28,0-1.35-.1-2.82-.34-4.26Z" /></svg>