<svg xmlns="http://www.w3.org/2000/svg"  viewBox="0 0 64 64"><defs /><path  d="m40,32c0,7.12,2.88,13.58,7.54,18.29-4.19,3.56-9.61,5.71-15.54,5.71s-11.35-2.15-15.54-5.71c4.66-4.7,7.54-11.16,7.54-18.29s-2.88-13.58-7.54-18.29c4.19-3.56,9.61-5.71,15.54-5.71s11.35,2.15,15.54,5.71c-4.66,4.7-7.54,11.16-7.54,18.29Zm-26.36-15.45c-3.52,4.18-5.64,9.56-5.64,15.45s2.12,11.28,5.64,15.45c3.93-3.98,6.36-9.43,6.36-15.45s-2.43-11.48-6.36-15.45Zm36.72,0c-3.93,3.98-6.36,9.43-6.36,15.45s2.43,11.48,6.36,15.45c3.52-4.18,5.64-9.56,5.64-15.45s-2.12-11.28-5.64-15.45Z" /></svg>