<svg xmlns="http://www.w3.org/2000/svg"  viewBox="0 0 64 64"><defs /><path  d="m17.91,34c-.42,4.67-2.31,8.91-5.19,12.28-2.59-3.49-4.25-7.7-4.62-12.28h9.82Zm38.01-4c-.38-4.58-2.04-8.79-4.62-12.28-2.88,3.37-4.77,7.62-5.19,12.28h9.82Zm-7.29-15.31c-3.86-3.71-8.96-6.14-14.62-6.6v21.91h8.08c.45-5.85,2.84-11.17,6.53-15.31Zm-35.91,3.02c-2.59,3.49-4.25,7.7-4.62,12.28h9.82c-.42-4.67-2.31-8.91-5.19-12.28Zm21.29,16.28v21.91c5.66-.47,10.76-2.89,14.62-6.6-3.7-4.13-6.09-9.45-6.53-15.31h-8.08Zm17.29,12.28c2.59-3.49,4.25-7.7,4.62-12.28h-9.82c.42,4.67,2.31,8.91,5.19,12.28Zm-35.91,3.02c3.86,3.71,8.96,6.14,14.62,6.6v-21.91h-8.08c-.45,5.85-2.84,11.17-6.53,15.31Zm6.53-19.31h8.08V8.09c-5.66.47-10.76,2.89-14.62,6.6,3.7,4.13,6.09,9.45,6.53,15.31Z" /></svg>