<svg xmlns="http://www.w3.org/2000/svg"  viewBox="0 0 64 64"><defs /><path  d="m56,20c-1.6,0-3.11.62-4.24,1.76l-7.76,7.76v-1.51c0-3.7-2.3-6-6-6v-2c0-1.6-.45-2.92-1.24-3.93l2.32-2.32c1.3-1.3,2.41-1.76,4.24-1.76h.69v-4h-.69c-2.9,0-5.02.88-7.07,2.93l-3.16,3.16c-.35-.05-.7-.09-1.08-.09s-.74.04-1.08.09l-3.16-3.16c-2.05-2.05-4.17-2.93-7.07-2.93h-.69v4h.69c1.83,0,2.95.46,4.24,1.76l2.32,2.32c-.79,1-1.24,2.32-1.24,3.93v2c-3.7,0-6,2.3-6,6v1.51l-7.76-7.76c-1.13-1.13-2.64-1.76-4.24-1.76-3.32,0-6,2.68-6,6,0,1.6.62,3.11,1.76,4.24l4.24,4.24v3.52c0,2.47,1.53,4,4,4h8v1.51c0,1.78.5,2.99,1.76,4.24l10.24,10.24,10.24-10.24c1.26-1.26,1.76-2.46,1.76-4.24v-1.51h8c2.47,0,4-1.53,4-4v-3.52l4.24-4.24c1.13-1.13,1.76-2.64,1.76-4.24,0-3.32-2.68-6-6-6Zm-18,22.69c0,.59-.17,1-.59,1.41l-5.41,5.41-5.41-5.41c-.42-.42-.59-.82-.59-1.41v-.69h12v.69Zm0-6.69h-12v-6h12v6Z" /></svg>