<svg xmlns="http://www.w3.org/2000/svg"  viewBox="0 0 64 64"><defs /><path  d="m57.51,38.06l-5.26-21.04c-1.03-4.12-4.74-7.02-8.99-7.02-5.12,0-9.27,4.15-9.27,9.27v9.29c-.59-.34-1.27-.55-2-.55s-1.41.21-2,.55v-9.29c0-5.12-4.15-9.27-9.27-9.27-4.25,0-7.96,2.89-8.99,7.02l-5.26,21.04c-.32,1.29-.49,2.61-.49,3.94h0c0,6.63,5.37,12,12,12,5.94,0,10.87-4.33,11.82-10h4.36c.95,5.67,5.88,10,11.82,10,6.63,0,12-5.37,12-12h0c0-1.33-.16-2.65-.49-3.94Zm-39.51,9.94c-3.31,0-6-2.69-6-6s2.69-6,6-6,6,2.69,6,6-2.69,6-6,6Zm28,0c-3.31,0-6-2.69-6-6s2.69-6,6-6,6,2.69,6,6-2.69,6-6,6Z" /></svg>