<svg xmlns="http://www.w3.org/2000/svg"  viewBox="0 0 64 64"><defs /><path  d="m28.95,46c2.25,0,4.03-.74,5.62-2.33l7.34-7.34c1.79,1.05,3.86,1.67,6.09,1.67,6.63,0,12-5.37,12-12s-5.37-12-12-12-12,5.37-12,12c0,2.22.62,4.3,1.67,6.09l-7.34,7.34c-.48.48-.71.57-1.38.57-1.4,0-1.95-.55-1.95-1.95v-6.05h5V8H6v24h5v6c0,10.93,7.07,18,18,18h7.6c1.12,2.52,3.74,4,7.4,4,4.94,0,8-2.68,8-7s-3.06-7-8-7c-3.66,0-6.29,1.48-7.4,4h-7.6c-7.63,0-12-4.37-12-12v-6h4v6.05c0,4.68,3.27,7.95,7.95,7.95Zm14.88-27l5.17,5.17-2.83,2.83-5.17-5.17,2.83-2.83Z" /></svg>