<svg xmlns="http://www.w3.org/2000/svg"  viewBox="0 0 64 64"><defs /><path  d="m17.35,46.85c1.28.73,2.03,1.15,2.65,1.15s1.52-.51,2.65-1.15c2.12-1.2,5.02-2.85,9.35-2.85s7.25,1.65,9.35,2.85c1.28.73,2.03,1.15,2.65,1.15s1.52-.51,2.65-1.15c1.12-.64,2.47-1.39,4.13-1.97l3.22-12.88v-2.33l-3.74-.62-4.26-17.04h-6v-6h-16v6h-6l-4.26,17.04-3.74.62v2.33l3.22,12.88c1.66.58,3.01,1.34,4.13,1.98Zm5.34-28.85h18.63l2.49,9.97-11.81-1.97-11.81,1.97,2.49-9.97Zm33.32,30v6c-3.78,0-6.11,4-12,4s-8.14-4-12-4-6.11,4-12,4-8.14-4-12-4v-6c5.97,0,8.14,4,12,4s6.11-4,12-4,8.14,4,12,4,6.11-4,12-4Z" /></svg>