<svg xmlns="http://www.w3.org/2000/svg"  viewBox="0 0 64 64"><defs /><path  d="m43.89,17c-.42-3.6-1.89-5.07-1.89-8.5s1.87-6.5,5-6.5,5,2.94,5,6.5-1.46,4.9-1.89,8.5h-6.23Zm6.36,4h-6.5c-.46,1.98-1.51,4.02-2.59,6.21,1.8,3.19,2.84,6.87,2.84,10.79,0,4.78-1.54,9.21-4.14,12.82,1.04,3.36,2.14,5.18,2.14,5.18h10s4-6.58,4-18c0-7-4.62-12.17-5.75-17Zm-10.25,17c0,9.94-8.06,18-18,18S4,47.94,4,38s8.06-18,18-18,18,8.06,18,18Zm-23-6c1.66,0,3-1.34,3-3s-1.34-3-3-3-3,1.34-3,3,1.34,3,3,3Zm8,7c0-1.66-1.34-3-3-3s-3,1.34-3,3,1.34,3,3,3,3-1.34,3-3Zm5-10c0-1.66-1.34-3-3-3s-3,1.34-3,3,1.34,3,3,3,3-1.34,3-3Z" /></svg>