<svg xmlns="http://www.w3.org/2000/svg"  viewBox="0 0 64 64"><defs /><path  d="m46,8c-5.52,0-10,4.48-10,10,0,3.75,2.07,7.01,5.12,8.72-1.36,1.49-3.42,2.28-6.12,2.28h-6c-3.11,0-5.82.74-8,2.09v-3.55c4.06-1.27,7-5.06,7-9.54,0-5.52-4.48-10-10-10s-10,4.48-10,10c0,4.48,2.94,8.27,7,9.54v8.92c-4.06,1.27-7,5.06-7,9.54,0,5.52,4.48,10,10,10s10-4.48,10-10c0-3.75-2.07-7.01-5.12-8.72,1.36-1.49,3.42-2.28,6.12-2.28h6c5.91,0,10.36-2.66,12.53-7.13,4.79-.74,8.47-4.87,8.47-9.87,0-5.52-4.48-10-10-10ZM14,18c0-2.21,1.79-4,4-4s4,1.79,4,4-1.79,4-4,4-4-1.79-4-4Zm4,32c-2.21,0-4-1.79-4-4s1.79-4,4-4,4,1.79,4,4-1.79,4-4,4Zm28-28c-2.21,0-4-1.79-4-4s1.79-4,4-4,4,1.79,4,4-1.79,4-4,4Z" /></svg>