<svg xmlns="http://www.w3.org/2000/svg"  viewBox="0 0 64 64"><defs /><path  d="m47.53,36.13c-2.17-4.47-6.62-7.13-12.53-7.13h-6c-2.71,0-4.77-.79-6.12-2.28,3.05-1.71,5.12-4.97,5.12-8.72,0-5.52-4.48-10-10-10s-10,4.48-10,10c0,4.48,2.94,8.27,7,9.54v8.92c-4.06,1.27-7,5.06-7,9.54,0,5.52,4.48,10,10,10s10-4.48,10-10c0-4.48-2.94-8.27-7-9.54v-3.55c2.18,1.35,4.89,2.09,8,2.09h6c2.71,0,4.77.79,6.12,2.28-3.05,1.71-5.12,4.97-5.12,8.72,0,5.52,4.48,10,10,10s10-4.48,10-10c0-5-3.68-9.13-8.47-9.87Zm-25.53,9.87c0,2.21-1.79,4-4,4s-4-1.79-4-4,1.79-4,4-4,4,1.79,4,4Zm-4-24c-2.21,0-4-1.79-4-4s1.79-4,4-4,4,1.79,4,4-1.79,4-4,4Zm28,28c-2.21,0-4-1.79-4-4s1.79-4,4-4,4,1.79,4,4-1.79,4-4,4Z" /></svg>