<svg xmlns="http://www.w3.org/2000/svg"  viewBox="0 0 64 64"><defs /><path  d="m46,36c-1.67,0-3.24.41-4.62,1.14l-14.52-14.52c.72-1.38,1.14-2.95,1.14-4.62,0-5.52-4.48-10-10-10s-10,4.48-10,10c0,4.48,2.94,8.27,7,9.54v8.92c-4.06,1.27-7,5.06-7,9.54,0,5.52,4.48,10,10,10s10-4.48,10-10c0-4.48-2.94-8.27-7-9.54v-8.92c.56-.18,1.1-.41,1.62-.68l14.52,14.52c-.72,1.38-1.14,2.95-1.14,4.62,0,5.52,4.48,10,10,10s10-4.48,10-10-4.48-10-10-10ZM18,14c2.21,0,4,1.79,4,4s-1.79,4-4,4-4-1.79-4-4,1.79-4,4-4Zm0,36c-2.21,0-4-1.79-4-4s1.79-4,4-4,4,1.79,4,4-1.79,4-4,4Zm28,0c-2.21,0-4-1.79-4-4s1.79-4,4-4,4,1.79,4,4-1.79,4-4,4Z" /></svg>