<svg xmlns="http://www.w3.org/2000/svg"  viewBox="0 0 64 64"><defs /><path  d="m15.74,19.98l-5.66-5.66,4.24-4.24,5.66,5.66-4.24,4.24Zm-3.74,9.02H4v6h8v-6Zm41.92-14.68l-4.24-4.24-5.66,5.66,4.24,4.24,5.66-5.66ZM10.08,49.68l4.24,4.24,5.66-5.66-4.24-4.24-5.66,5.66ZM35,4h-6v8h6V4Zm-6,56h6v-8h-6v8Zm15.02-11.74l5.66,5.66,4.24-4.24-5.66-5.66-4.24,4.24Zm7.98-19.26v6h8v-6h-8Zm-4,3c0,8.84-7.16,16-16,16s-16-7.16-16-16,7.16-16,16-16,16,7.16,16,16Zm-6,0c0-5.52-4.48-10-10-10s-10,4.48-10,10,4.48,10,10,10,10-4.48,10-10Z" /></svg>