<svg xmlns="http://www.w3.org/2000/svg"  viewBox="0 0 64 64"><defs /><path  d="m50.28,32.88c2.24-2.93,3.72-6.13,3.72-8.86,0-6.34-7.68-14.02-14.02-14.02-2.9,0-6.31,1.66-9.38,4.12-2-3.31-5.8-6.12-9.12-6.12-5.5,0-13.49,7.98-13.49,13.49,0,4.26,4.62,9.31,9,10.32v4.57c0,3.56-1,5.97-3.51,8.49l-3.49,3.49,5.66,5.66,3.49-3.49c2.51-2.51,4.93-3.51,8.49-3.51h3.66c1.24,4.45,6.35,9,10.66,9,5.73,0,14.05-8.32,14.05-14.05,0-3.23-2.56-6.91-5.72-9.07Zm-27.28,8.12v-8.82c1.65,3.69,5.12,7.17,8.82,8.82h-8.82Z" /></svg>