<svg xmlns="http://www.w3.org/2000/svg" viewBox="0 0 64 64"><path d="M35 19.1429V9H29V19.1429H35Z M43.2126 25.0303L50.3847 17.8583L46.1421 13.6156L38.97 20.7877L43.2126 25.0303Z M54.9999 35H44.857V29H54.9999V35Z M38.9701 43.2127L46.1422 50.3848L50.3849 46.1422L43.2128 38.9701L38.9701 43.2127Z M28.9998 55V44.8571H34.9998V55H28.9998Z M20.7872 38.9697L13.6152 46.1417L17.8578 50.3844L25.0299 43.2123L20.7872 38.9697Z M9.00009 29L19.1429 29L19.1429 35H9.00009V29Z M25.0298 20.7873L17.8577 13.6152L13.615 17.8578L20.7871 25.0299L25.0298 20.7873Z" /></svg>