<svg xmlns="http://www.w3.org/2000/svg"  viewBox="0 0 64 64"><defs /><path  d="m60,12v6c-1.45,1.45-2.11,2.77-2.4,4.8l-1.11,7.77c-.31,2.2-1.74,3.43-3.96,3.43h-10.53v2h2.29c4.59,0,7.65,1.89,9.71,6l-5,10c-4.29,0-7.21-1.21-10.24-4.24l-3.76-3.76v6h-6v-6l-3.76,3.76c-3.04,3.04-5.95,4.24-10.24,4.24h0l-5-10c2.05-4.11,5.11-6,9.71-6h2.29v-2h-10.53c-2.22,0-3.65-1.23-3.96-3.43l-1.11-7.77c-.29-2.03-.95-3.35-2.4-4.8v-6h7c9.19,0,15.12,5.31,15.9,14h2.1v-5c0-1.85,1.15-3,3-3s3,1.15,3,3v5h2.1c.78-8.69,6.72-14,15.9-14h7Z" /></svg>