<svg xmlns="http://www.w3.org/2000/svg"  viewBox="0 0 64 64"><defs /><path  d="m46,33c-5.51,0-10,4.49-10,10,0,2.5.93,4.78,2.45,6.53-1.9.29-4.05.47-6.45.47-12.72,0-21.28-5-21.28-5l-2.72,5.37s9.77,5.63,24,5.63c10.13,0,24-2.82,24-13,0-5.51-4.49-10-10-10Zm0,14c-2.21,0-4-1.79-4-4s1.79-4,4-4,4,1.79,4,4-1.79,4-4,4Zm-28-16c5.51,0,10-4.49,10-10,0-2.5-.93-4.78-2.45-6.53,1.9-.29,4.05-.47,6.45-.47,12.72,0,21.28,5,21.28,5l2.72-5.37s-9.77-5.63-24-5.63c-10.13,0-24,2.82-24,13,0,5.51,4.49,10,10,10Zm0-14c2.21,0,4,1.79,4,4s-1.79,4-4,4-4-1.79-4-4,1.79-4,4-4Z" /></svg>