<svg xmlns="http://www.w3.org/2000/svg"  viewBox="0 0 64 64"><defs /><path  d="m62,23v-4.5c-6.37,0-10.73,3-13.57,6.18-2.81-6.29-9.1-10.68-16.43-10.68s-13.63,4.39-16.43,10.68c-2.84-3.17-7.2-6.18-13.57-6.18v4.5c1.85,0,3,1.15,3,3s-1.15,3-3,3v6c1.85,0,3,1.15,3,3s-1.15,3-3,3v4.5c6.37,0,10.73-3,13.57-6.18,2.81,6.29,9.1,10.68,16.43,10.68s13.63-4.39,16.43-10.68c2.84,3.17,7.2,6.18,13.57,6.18v-4.5c-1.85,0-3-1.15-3-3s1.15-3,3-3v-6c-1.85,0-3-1.15-3-3s1.15-3,3-3Zm-24,17c0-3.45-1.8-5.55-4.97-5.92-.53.74-2.98,4.14-7.56,4.14-1.77,0-3.61-.53-5.4-1.56l2-3.46c1.17.68,2.33,1.02,3.41,1.02,2.67,0,4.15-2.26,4.21-2.35-.66-1.46-.99-2.91-.99-4.3,0-3.28,1.8-6.25,5.23-8.23l2,3.46c-2.12,1.22-3.21,2.9-3.21,4.81,0,.78.18,1.6.55,2.45,5.35.51,8.73,4.3,8.73,9.93h-4Z" /></svg>