<svg xmlns="http://www.w3.org/2000/svg"  viewBox="0 0 64 64"><defs /><path  d="m42,8h-20c-4.94,0-8,3.06-8,8v32c0,4.94,3.06,8,8,8h20c4.94,0,8-3.06,8-8V16c0-4.94-3.06-8-8-8Zm-4,31c-1.79,0-3.4-.79-4.5-2.04v.57c0,1.52.86,2.9,2.21,3.58l1.79.89v1.5h-11v-1.5l1.79-.89c1.36-.68,2.21-2.06,2.21-3.58v-.57c-1.1,1.25-2.71,2.04-4.5,2.04-3.31,0-6-2.69-6-6s2.69-6,6-6c.19,0,.38.01.56.03-.36-.77-.56-1.62-.56-2.53,0-3.31,2.69-6,6-6s6,2.69,6,6c0,.9-.21,1.76-.56,2.53.19-.02.37-.03.56-.03,3.31,0,6,2.69,6,6s-2.69,6-6,6Z" /></svg>