<svg xmlns="http://www.w3.org/2000/svg"  viewBox="0 0 64 64"><defs /><path  d="m33.26,8.11c1.41-1.41,3.04-2.11,4.73-2.11,2.35,0,4.85,1.51,6.57,3.56,1.4-1.64,3.43-2.79,5.43-2.79,3.57,0,7.24,3.67,7.24,7.24,0,2-1.15,4.03-2.79,5.43,2.06,1.72,3.56,4.22,3.56,6.57,0,1.69-.7,3.32-2.11,4.73l-4.95-4.95c-1.31-1.31-2.78-1.96-4.24-1.96s-2.93.65-4.24,1.96l-2.33,2.33,1.61,1.61c1.62,1.62,2.27,3.18,2.27,5.48,0,3.28-1.35,5.47-4.28,6.93l-27.72,13.86-4-4,13.86-27.72c1.47-2.93,3.65-4.28,6.93-4.28,2.3,0,3.86.65,5.48,2.27l1.61,1.61,2.33-2.33c1.31-1.31,1.96-2.78,1.96-4.24s-.65-2.93-1.96-4.24l-4.95-4.95Z" /></svg>