<svg xmlns="http://www.w3.org/2000/svg"  viewBox="0 0 64 64"><defs /><path  d="m22,18v-8h2v-6h-12v6h2v8l-3.31,3.31c-3.35,3.35-4.69,6.57-4.69,11.31v19.37c0,2.47,1.53,4,4,4h16c2.47,0,4-1.53,4-4v-19.37c0-4.74-1.33-7.96-4.69-11.31l-3.31-3.31Zm2,32h-12v-17.37c0-1.61.19-2.84.67-3.96l5.33,5.33,5.33-5.33c.48,1.12.67,2.35.67,3.96v17.37Zm34-22h0c0-1.03-.13-2.05-.38-3.05l-4.24-16.95h-14.77l-4.24,16.95c-.25,1-.38,2.02-.38,3.05,0,6.44,2.89,10.74,9,11.76v10.24h-8v6h22v-6h-8v-10.24c6.11-1.02,9-5.32,9-11.76Zm-9.3-14l1,4h-7.41l1-4h5.41Z" /></svg>