<svg xmlns="http://www.w3.org/2000/svg"  viewBox="0 0 64 64"><defs /><path  d="m58,44c0,6.63-5.37,12-12,12s-12-5.37-12-12c0-4.23,2.2-7.95,5.51-10.08-.3-1.88-.51-4.18-.51-6.92,0-2.99.25-5.44.59-7.41-7.5,2.38-13.57,7.26-16.64,13.49,4.16,1.89,7.05,6.06,7.05,10.92,0,6.63-5.37,12-12,12s-12-5.37-12-12c0-6.23,4.76-11.36,10.84-11.94,2.86-6.86,8.5-12.52,15.69-16.06h-2.53c-4.94,0-8-3.06-8-8h13c3.72,0,6.37,1.74,7.46,4.71,2.44-.46,4.96-.71,7.54-.71v6c-1.34,0-2.67.08-3.97.23-.47,1.71-1.03,4.61-1.03,8.77,0,1.96.13,3.63.31,5.03.23-.01.46-.03.69-.03,6.63,0,12,5.37,12,12Z" /></svg>