<svg xmlns="http://www.w3.org/2000/svg"  viewBox="0 0 64 64"><defs /><path  d="m44.13,31.84c2.06-.78,4.04-1.76,5.87-2.99l-10.04-10.04c2.13-.66,4.18-1.58,6.04-2.82l-12-12h-4l-12,12c1.8,1.2,3.85,2.14,6.05,2.81l-10.05,10.05c1.79,1.19,3.77,2.19,5.88,2.98l-9.88,9.88c5.05,3.38,11.38,5.46,18,6.08v8.21h8v-8.2c6.38-.57,12.67-2.52,18-6.09l-9.87-9.87Zm-19.13,10.16c-1.66,0-3-1.34-3-3s1.34-3,3-3,3,1.34,3,3-1.34,3-3,3Zm3-27c0-1.66,1.34-3,3-3s3,1.34,3,3-1.34,3-3,3-3-1.34-3-3Zm7,17c-1.66,0-3-1.34-3-3s1.34-3,3-3,3,1.34,3,3-1.34,3-3,3Z" /></svg>