<svg xmlns="http://www.w3.org/2000/svg"  viewBox="0 0 64 64"><defs /><path  d="m48,38v4h-4v-4c0-1.36-.64-2-2-2h-12c-4.79,0-8-3.21-8-8,0-1.51.32-2.86.9-4-6.63-.04-10.9-4.35-10.9-11S16.32,2,23,2h3v4h-3c-4.45,0-7,2.55-7,7s2.55,7,7,7h9v4h-2c-2.58,0-4,1.42-4,4s1.42,4,4,4h12c3.59,0,6,2.41,6,6Zm-4,16h4v-8h-4v8Zm-36,0h32v-8H8v8Zm44,0h4v-8h-4v8Zm-6-29.55c1.28-1.67,2-3.87,2-6.45,0-6.08-3.93-10-10-10h-8v4h8c3.81,0,6,2.19,6,6s-2.19,6-6,6h-2v4h6c6.26,0,10,3.74,10,10v4h4v-4c0-7.08-3.81-12.08-10-13.55Z" /></svg>