<svg xmlns="http://www.w3.org/2000/svg"  viewBox="0 0 64 64"><defs /><path  d="m26.47,17.99l-4.32-4.32c3.01-2.37,7.03-3.67,11.84-3.67,11.11,0,18,6.89,18,18v.32c5,1.08,8,4.96,8,10.68,0,3.84-1.35,6.86-3.76,8.76l-4.34-4.34c1.42-.73,2.1-2.16,2.1-4.42,0-3.46-1.54-5-5-5h-3v-6c0-7.74-4.26-12-12-12-3.08,0-5.6.69-7.53,1.99ZM6,8.83l49.17,49.17,2.83-2.83L8.83,6l-2.83,2.83Zm11,35.17c-4.71,0-7-2.29-7-7s2.29-7,7-7h4.51l-5.94-5.94c-7.18.56-11.57,5.41-11.57,12.94,0,8.02,4.98,13,13,13h24.51l-6-6h-18.51Z" /></svg>