<svg xmlns="http://www.w3.org/2000/svg" viewBox="0 0 64 64"><g><rect x="28.2" y="6.5" width="7.6" height="9.5" rx="1.8" transform="rotate(0 32 32)"/><rect x="28.2" y="6.5" width="7.6" height="9.5" rx="1.8" transform="rotate(45 32 32)"/><rect x="28.2" y="6.5" width="7.6" height="9.5" rx="1.8" transform="rotate(90 32 32)"/><rect x="28.2" y="6.5" width="7.6" height="9.5" rx="1.8" transform="rotate(135 32 32)"/><rect x="28.2" y="6.5" width="7.6" height="9.5" rx="1.8" transform="rotate(180 32 32)"/><rect x="28.2" y="6.5" width="7.6" height="9.5" rx="1.8" transform="rotate(225 32 32)"/><rect x="28.2" y="6.5" width="7.6" height="9.5" rx="1.8" transform="rotate(270 32 32)"/><rect x="28.2" y="6.5" width="7.6" height="9.5" rx="1.8" transform="rotate(315 32 32)"/><path fill-rule="evenodd" d="M32 14.5a17.5 17.5 0 1 0 0 35a17.5 17.5 0 1 0 0-35Zm0 10.5a7 7 0 1 1 0 14a7 7 0 1 1 0-14Z"/></g></svg>
