<svg xmlns="http://www.w3.org/2000/svg"  viewBox="0 0 64 64"><defs /><path  d="m58,21.5v-3l-6-1.5v-1c0-2.47-1.53-4-4-4h-1l-1.5-6h-3l-1.5,6h-6l-1.5-6h-3l-1.5,6h-6l-1.5-6h-3l-1.5,6h-1c-2.47,0-4,1.53-4,4v1l-6,1.5v3l6,1.5v6l-6,1.5v3l6,1.5v6l-6,1.5v3l6,1.5v1c0,2.47,1.53,4,4,4h1l1.5,6h3l1.5-6h6l1.5,6h3l1.5-6h6l1.5,6h3l1.5-6h1c2.47,0,4-1.53,4-4v-1l6-1.5v-3l-6-1.5v-6l6-1.5v-3l-6-1.5v-6l6-1.5Zm-10,26.5H16V16h32v32Zm-4-28h-24v24h24v-24Zm-17,10c-1.66,0-3-1.34-3-3s1.34-3,3-3,3,1.34,3,3-1.34,3-3,3Z" /></svg>