<svg xmlns="http://www.w3.org/2000/svg"  viewBox="0 0 64 64"><defs /><path  d="m18.83,46l7.17,7.17-2.83,2.83-7.17-7.17,2.83-2.83Zm12.17-2c-1.66,0-3,1.34-3,3s1.34,3,3,3,3-1.34,3-3-1.34-3-3-3Zm-15-12c0-2.88,1.12-4,4-4v-4c-5.35,0-8,2.65-8,8v2c0,2.88-1.12,4-4,4v4c5.35,0,8-2.65,8-8v-2Zm4,6v4c7.29,0,12-4.71,12-12h-4c0,5.08-2.92,8-8,8Zm2.78-28.38c-6.9-3.45-13.33-1.31-16.78,5.59l22.38,11.19c3.45-6.9,1.31-13.33-5.59-16.78Zm30.22,14.38c-1.66,0-3,1.34-3,3s1.34,3,3,3,3-1.34,3-3-1.34-3-3-3Zm-5,20h-2c-5.35,0-8,2.65-8,8h4c0-2.88,1.12-4,4-4h2c5.35,0,8-2.65,8-8h-4c0,2.88-1.12,4-4,4Zm-2.83-4l2.83-2.83-7.17-7.17-2.83,2.83,7.17,7.17Zm-3.96-30.38c-6.9,3.45-9.05,9.88-5.59,16.78l22.38-11.19c-3.45-6.9-9.88-9.05-16.78-5.59Z" /></svg>