<svg xmlns="http://www.w3.org/2000/svg"  viewBox="0 0 64 64"><defs /><path  d="m56,20v4l-10-2.5v5.5l4,2v3l-7-1.75-7,1.75v-3l4-2v-5.5l-10,2.5v-4l10-5v-4c0-3.39,1.15-5,3-5s3,1.61,3,5v4l10,5Zm-32,23.5l10,2.5v-4l-10-5v-4c0-3.39-1.15-5-3-5s-3,1.61-3,5v4l-10,5v4l10-2.5v5.5l-4,2v3l7-1.75,7,1.75v-3l-4-2v-5.5Zm3-29.5c1.66,0,3-1.34,3-3s-1.34-3-3-3-3,1.34-3,3,1.34,3,3,3ZM11,30c1.66,0,3-1.34,3-3s-1.34-3-3-3-3,1.34-3,3,1.34,3,3,3Zm6-10c1.66,0,3-1.34,3-3s-1.34-3-3-3-3,1.34-3,3,1.34,3,3,3Zm20,30c-1.66,0-3,1.34-3,3s1.34,3,3,3,3-1.34,3-3-1.34-3-3-3Zm16-16c-1.66,0-3,1.34-3,3s1.34,3,3,3,3-1.34,3-3-1.34-3-3-3Zm-6,10c-1.66,0-3,1.34-3,3s1.34,3,3,3,3-1.34,3-3-1.34-3-3-3Z" /></svg>