<svg xmlns="http://www.w3.org/2000/svg"  viewBox="0 0 64 64"><defs /><path  d="m49,36h5.34c1.72,0,3.03-.54,4.24-1.76l3.41-3.41-2.83-2.83-3.41,3.41c-.47.47-.76.59-1.42.59h-3.34l4.11-8.21c.59-1.18.89-2.47.89-3.79,0-8-9.22-14-15-14-5.26,0-7,3-7,3l4.5,2.25-1.5,3,12.93,6.47-2.98,5.95c-2.02-4.44-7.01-6.67-14.96-6.67s-12.93,2.23-14.96,6.67l-2.98-5.95,12.93-6.47-1.5-3,4.5-2.25s-1.74-3-7-3c-5.78,0-15,6-15,14,0,1.32.31,2.61.89,3.79l4.11,8.21h-3.34c-.66,0-.95-.12-1.42-.59l-3.41-3.41-2.83,2.83,3.41,3.41c1.22,1.22,2.52,1.76,4.24,1.76h5.34l1.08,2.16c.33.65.67,1.26,1.03,1.84h-3.45c-1.72,0-3.03.54-4.24,1.76l-3.41,3.41,2.83,2.83,3.41-3.41c.47-.47.76-.59,1.42-.59h6.7c.65.58,1.33,1.11,2.05,1.56l-3.09,1.55c-2.2,1.1-3.32,2.91-3.32,5.37v3.53h4v-3.53c0-.94.27-1.37,1.11-1.79l6.29-3.15c1.42.3,2.95.46,4.6.46s3.18-.16,4.6-.46l6.29,3.15c.84.42,1.11.85,1.11,1.79v3.53h4v-3.53c0-2.46-1.12-4.27-3.32-5.37l-3.09-1.55c.72-.45,1.4-.98,2.05-1.56h6.7c.66,0,.95.12,1.42.59l3.41,3.41,2.83-2.83-3.41-3.41c-1.22-1.22-2.52-1.76-4.24-1.76h-3.45c.36-.58.7-1.19,1.03-1.84l1.08-2.16Z" /></svg>