<svg xmlns="http://www.w3.org/2000/svg"  viewBox="0 0 64 64"><defs /><path  d="m49.41,14.59c-4.11-4.11-5.41-5.56-5.41-8.59h-4c0,1.96.42,3.54,1.18,4.99l-18.25,18.25c-1.89,1.89-2.93,4.4-2.93,7.07v3.44l-7.24,7.24h-1.1c-1.06,0-2.08.42-2.83,1.17l-1.83,1.83,7,7,1.83-1.83c.75-.75,1.17-1.77,1.17-2.83v-1.1l7.24-7.24h3.44c2.67,0,5.18-1.04,7.07-2.93l18.25-18.25c1.45.76,3.03,1.18,4.99,1.18v-4c-3.03,0-4.47-1.3-8.59-5.41Zm-17.49,23.66c-1.13,1.13-2.64,1.76-4.24,1.76h-3.69v-3.69c0-1.6.62-3.11,1.76-4.24l2.74-2.74,6.17,6.17-2.74,2.74Zm5.57-5.57l-6.17-6.17,12.23-12.23c.87.98,1.89,2,3.03,3.14,1.15,1.15,2.16,2.16,3.14,3.03l-12.23,12.23Z" /></svg>