<svg xmlns="http://www.w3.org/2000/svg"  viewBox="0 0 64 64"><defs /><path  d="m14,40h10v6H0V10h52v6H14c0,4.94-3.06,8-8,8v8c4.94,0,8,3.06,8,8Zm50-2c0,9.94-8.06,18-18,18s-18-8.06-18-18,8.06-18,18-18,18,8.06,18,18Zm-13,5.5v-3.5h2c1.85,0,3-1.15,3-3s-1.15-3-3-3c0,0-.01,0-.02,0,0-.17.02-.33.02-.5,0-4.63-2.87-7.5-7.5-7.5-4.3,0-7.08,2.48-7.45,6.54l-2.75,2.75c-.23.23-.33.55-.28.87s.25.59.54.73l2.29,1.14.44,2.65c.14.83.68,1.31,1.42,1.31.15,0,.31-.02.48-.06l2.82-.7v3.77l-2.34,1.17c-1.14.57-1.66,1.41-1.66,2.68v1.26c2.06,1.19,4.45,1.89,7,1.89,3.75,0,7.15-1.48,9.66-3.88-.69-1.89-2.38-3.48-4.66-4.62Zm-25-23.5c-4.32,0-7,3.06-7,8,0,4.17,1.92,6.99,5.11,7.77.55-5.43,3.07-10.27,6.83-13.81-1.2-1.26-2.88-1.97-4.94-1.97Z" /></svg>