<svg xmlns="http://www.w3.org/2000/svg"  viewBox="0 0 64 64"><defs /><path  d="m10.4,49.6l5.6,1.4v2l-5.6,1.4-1.4,5.6h-2l-1.4-5.6-5.6-1.4v-2l5.6-1.4,1.4-5.6h2l1.4,5.6Zm41.6-15.6c0,11.05-8.95,20-20,20s-20-8.95-20-20c0-8.95,5.89-16.53,14-19.08v-2.92h4v-4h4v4h4v2.92c8.11,2.55,14,10.13,14,19.08Zm-20-16c-1.85,0-3.46,3.22-4.33,8h8.65c-.86-4.78-2.48-8-4.33-8Zm-6.6,30.56c-.83-1.89-1.42-4.14-1.8-6.56h-5.44c1.67,2.88,4.2,5.18,7.24,6.56Zm.01-29.13c-3.05,1.38-5.59,3.69-7.26,6.57h5.46c.26-1.63.61-3.15,1.03-4.51.24-.76.5-1.44.77-2.06Zm10.91,22.57h-8.65c.86,4.78,2.48,8,4.33,8s3.46-3.22,4.33-8Zm.67-8c0-1.38-.06-2.72-.16-4h-9.67c-.1,1.28-.16,2.62-.16,4s.06,2.72.16,4h9.67c.1-1.28.16-2.62.16-4Zm3.41-8h5.44c-1.67-2.88-4.2-5.18-7.24-6.56.83,1.89,1.42,4.14,1.8,6.56Zm7.07,4h-6.62c.09,1.33.14,2.67.14,4s-.06,2.7-.15,4h6.63c.33-1.28.52-2.62.52-4s-.19-2.72-.52-4Zm16.52-19l-7.2-1.8-1.8-7.2h-2l-1.8,7.2-7.2,1.8v2l7.2,1.8,1.8,7.2h2l1.8-7.2,7.2-1.8v-2Z" /></svg>