<svg xmlns="http://www.w3.org/2000/svg"  viewBox="0 0 64 64"><defs /><path  d="m32,8c-13.26,0-24,10.74-24,24s10.74,24,24,24,24-10.74,24-24-10.74-24-24-24Zm-12.73,11.27c3.03-3.03,6.87-4.74,10.82-5.16l-7.99,7.99-2.83-2.83Zm5.66,5.66l10.58-10.58c1.45.29,2.87.77,4.23,1.42l-11.99,11.99-2.83-2.83Zm5.66,5.66l12.64-12.64c1.11.89,1.94,1.72,2.83,2.83l-12.65,12.64-2.83-2.83Zm5.66,5.66l11.99-11.99c.65,1.36,1.13,2.78,1.42,4.23l-10.58,10.58-2.83-2.83Zm8.49,8.49l-2.83-2.83,7.99-7.99c-.42,3.95-2.13,7.79-5.16,10.82Z" /></svg>