<svg xmlns="http://www.w3.org/2000/svg"  viewBox="0 0 64 64"><defs /><path  d="m55.48,39h-2.48s-3.85,4-9,4-9-3.79-9-9,3.75-8.96,8.92-9h0c-.5-5.83-3.27-9-7.92-9-6.17,0-10,4.98-10,13,0,3.39.73,6.5,2.01,9.19l-3.61,1.81c-1.53-3.23-2.39-6.96-2.39-11,0-10.33,5.5-17,14-17,6.97,0,12,5.18,12,13,0,2.35-1.32,4-4,4-2.99,0-5,2.01-5,5s2.01,5,5,5c4.82,0,10-5.48,10-14,0-10.62-6.63-18.53-18.04-18.96l.04-.04h-13.03c-7.81,0-12.98,3.73-15.27,11.2-1.11,3.62-1.7,7.58-1.7,11.8,0,1.01.05,2.01.11,3h6.01c-.08-.99-.13-1.99-.13-3,0-4.39.77-8.44,2.16-11.99,1.33-3.4,3.78-5.01,7.43-5.01h.17c-3.55,3.99-5.75,9.81-5.75,17,0,17,12.42,29,27,29,5.55,0,9-3.45,9-9l2.28-2.66c1.11-1.3,1.72-2.95,1.72-4.65,0-.92-.18-1.84-.52-2.69Z" /></svg>