<svg xmlns="http://www.w3.org/2000/svg" viewBox="0 0 64 64"><g transform="rotate(-6 37 21)"><path d="m16,5h42v9.5l-21,10.5-21,-10.5v-9.5Zm0,19.4v12.6h42v-12.6l-21,10.5-21,-10.5Z"/></g><rect x="2" y="11" width="10" height="4.5" rx="2.25"/><rect x="0" y="20" width="12" height="4.5" rx="2.25"/><rect x="2" y="29" width="10" height="4.5" rx="2.25"/><path d="M54.19,43.26 50.23,39.94 45.13,39.04 40.26,40.81 36.94,44.77 36.04,49.87 37.81,54.74 41.77,58.06 46.87,58.96 51.74,57.19 54.19,54.74 51.73,53.02 50.02,54.73 46.61,55.97 43.04,55.34 40.27,53.02 39.03,49.61 39.66,46.04 41.98,43.27 45.39,42.03 48.96,42.66 51.73,44.98Z"/><path fill-rule="evenodd" d="M46,43.4a5.6,5.6 0 1 0 0.001,0Zm0,2.9a2.7,2.7 0 1 1 -0.001,0Z"/><rect x="50.2" y="44.2" width="3.4" height="10.2" rx="1.7"/></svg>
