<svg xmlns="http://www.w3.org/2000/svg"  viewBox="0 0 64 64"><defs /><path  d="m32,8c-13.25,0-24,10.75-24,24s10.75,24,24,24,24-10.75,24-24-10.75-24-24-24Zm-15.91,19.3c-.43-1.89.71-3.5,2.36-3.84,2.46-.52,3.28,1.75,3.84,1.64.55-.12.32-2.51,2.79-3.03,1.64-.35,3.37.66,3.79,2.55.8,3.57-2.08,7-3.98,9-.37.39-.8.48-1.31.27-2.58-1.05-6.68-3.02-7.49-6.59Zm15.91,19.7c-8.53,0-13-7-13-7l3.33-2.22s3.12,5.22,9.67,5.22,9.67-5.22,9.67-5.22l3.33,2.22s-4.47,7-13,7Zm15.91-19.7c-.8,3.57-4.91,5.54-7.49,6.59-.51.21-.93.12-1.31-.27-1.9-1.99-4.78-5.42-3.98-9,.43-1.89,2.15-2.9,3.79-2.55,2.47.52,2.23,2.91,2.79,3.03.55.12,1.38-2.15,3.84-1.64,1.64.35,2.78,1.95,2.36,3.84Z" /></svg>