<svg xmlns="http://www.w3.org/2000/svg"  viewBox="0 0 64 64"><defs /><path  d="m54,17c0-2.52,2-2.15,2-5,0-2.47-1.53-4-4-4-2.89,0-2.45,2-5,2s-2.15-2-5-2-2.45,2-5,2-2.15-2-5-2-2.45,2-5,2-2.15-2-5-2-2.45,2-5,2-2.15-2-5-2c-2.47,0-4,1.53-4,4,0,2.89,2,2.45,2,5s-2,2.15-2,5,2,2.45,2,5-2,2.15-2,5,2,2.45,2,5-2,2.15-2,5,2,2.45,2,5-2,2.15-2,5c0,2.47,1.53,4,4,4,2.89,0,2.45-2,5-2s2.15,2,5,2,2.45-2,5-2,2.15,2,5,2,2.45-2,5-2,2.15,2,5,2,2.45-2,5-2,2.15,2,5,2c2.47,0,4-1.53,4-4,0-2.89-2-2.45-2-5s2-2.15,2-5-2-2.45-2-5,2-2.15,2-5-2-2.45-2-5,2-2.15,2-5-2-2.45-2-5Zm-6,31H16v-10h32v10Z" /></svg>