<svg xmlns="http://www.w3.org/2000/svg"  viewBox="0 0 64 64"><defs /><path  d="m20,34H6v-4h14v4Zm-4.32-13.73l-3.46-2-2,3.46,3.46,2,2-3.46Zm1.59,33.25l3.46,2,7-12.12-3.46-2-7,12.12Zm10.46-32.91l-7-12.12-3.46,2,7,12.12,3.46-2Zm26.05,1.12l-2-3.46-3.46,2,2,3.46,3.46-2Zm-7.05-11.25l-3.46-2-7,12.12,3.46,2,7-12.12Zm-30.45,28.28l2,3.46,9.53-5.5-2-3.46-9.53,5.5Zm31.44-13.54l-2-3.46-9.53,5.5,2,3.46,9.53-5.5ZM10.22,42.27l2,3.46,3.46-2-2-3.46-3.46,2Zm38.11,1.46l3.46,2,2-3.46-3.46-2-2,3.46Zm-12.12-7l9.53,5.5,2-3.46-9.53-5.5-2,3.46Zm7.8-6.73v4h14v-4h-14Zm-27.72-4.77l9.53,5.5,2-3.46-9.53-5.5-2,3.46Zm19.99,18.16l7,12.12,3.46-2-7-12.12-3.46,2Zm-6.27,12.61h4v-4h-4v4Zm0-44h4v-4h-4v4Zm0,37h4v-11h-4v11Zm0-23h4v-11h-4v11Z" /></svg>