<svg xmlns="http://www.w3.org/2000/svg"  viewBox="0 0 64 64"><defs /><path  d="m58,34.5c0,4.81-2.62,8.5-7,8.5,0-4.63-2.24-8-7-8-3.48,0-5.89,1.86-6.7,5h4.7v4h-4.89c.6,4.2,3.81,6,8.89,6v4h-8l-6,6-6-6h-8v-4c5.08,0,8.29-1.8,8.89-6h-4.89v-4h4.7c-.81-3.14-3.22-5-6.7-5-4.76,0-7,3.37-7,8-4.38,0-7-3.69-7-8.5,0-6.34,4.43-10.5,11-10.5,3.42,0,6.12,1.51,8.13,3.87l1.38-1.38c-1.4-2.87-2.51-5.58-2.51-8.09,0-4.81,2.54-9.12,8-14.4,5.46,5.28,8,9.58,8,14.4,0,2.51-1.11,5.23-2.51,8.09l1.38,1.38c2.01-2.35,4.71-3.87,8.13-3.87,6.57,0,11,4.16,11,10.5Z" /></svg>