<svg xmlns="http://www.w3.org/2000/svg" viewBox="0 0 64 64"><path d="M15.8803 14.229H24.6401L36.9034 49.7712H30.5563L27.796 41.7712H12.7243L9.96394 49.7712H3.61682L15.8803 14.229ZM14.7945 35.7712H25.7258L20.3632 20.229H20.1572L14.7945 35.7712Z" /><path d="M54.383 29.0538L55.008 27.5627H60.383V49.7712H55.008L54.383 47.2225L54.3981 47.1957C52.692 48.8262 50.4536 49.7712 47.883 49.7712C42.043 49.7712 37.383 44.9277 37.383 38.1381C37.383 31.3488 42.043 26.5051 47.883 26.5051C50.4428 26.5051 52.6729 27.4358 54.383 29.0538ZM43.383 38.1276C43.383 41.7906 45.6711 44.4001 48.883 44.4001C52.095 44.4001 54.383 41.7906 54.383 38.1276C54.383 34.4646 52.095 31.8551 48.883 31.8551C45.6711 31.8551 43.383 34.4646 43.383 38.1276Z"/></svg>