<svg xmlns="http://www.w3.org/2000/svg"  viewBox="0 0 64 64"><defs /><path  d="m54.45,9.55c-3.7-1.12-6.39-1.55-10.45-1.55-22.21,0-36,13.79-36,36,0,4.06.43,6.76,1.55,10.45,3.7,1.12,6.39,1.55,10.45,1.55,22.21,0,36-13.79,36-36,0-4.06-.43-6.76-1.55-10.45Zm-11.62,14.45l3.17,3.17-2.83,2.83-3.17-3.17-5.17,5.17,3.17,3.17-2.83,2.83-3.17-3.17-5.17,5.17,3.17,3.17-2.83,2.83-3.17-3.17-5.17,5.17-2.83-2.83,5.17-5.17-3.17-3.17,2.83-2.83,3.17,3.17,5.17-5.17-3.17-3.17,2.83-2.83,3.17,3.17,5.17-5.17-3.17-3.17,2.83-2.83,3.17,3.17,5.17-5.17,2.83,2.83-5.17,5.17Z" /></svg>