<svg xmlns="http://www.w3.org/2000/svg"  viewBox="0 0 64 64"><defs /><path  d="m22,34c0,5.83,2.28,11.14,6,15.08v6.92h-8v-8.21c-6.62-.62-12.95-2.7-18-6.08l9.88-9.88c-2.11-.79-4.09-1.78-5.88-2.98l10.05-10.05c-2.19-.67-4.25-1.61-6.05-2.81l12-12h4l9.42,9.42c-5.35,3.37-8.92,9.31-8.92,16.08,0,.17,0,.33,0,.5h-4.51v4Zm40,0c0,9.94-8.06,18-18,18s-18-8.06-18-18h5.19c-.45-1.42-.69-2.93-.69-4.5,0-8.28,6.72-15,15-15v14.49l10.49-6.99c3.65,2.74,6.01,7.09,6.01,12Zm-12,7.5c0-1.23-.37-2.38-1.01-3.33l-4.99,3.33v-6c-3.31,0-6,2.69-6,6s2.69,6,6,6,6-2.69,6-6Z" /></svg>