<svg xmlns="http://www.w3.org/2000/svg"  viewBox="0 0 64 64"><defs /><path  d="m31.54,35.54l-20.46,20.46-7.07-7.07,20.46-20.46-.46-.46c-1.2-1.2-1.5-2.49-.97-4.09l.63-1.9-1.41-1.41-1.9.63c-1.61.54-2.9.23-4.09-.97l-2.27-2.27L30,2l2.27,2.27c1.2,1.2,1.5,2.49.97,4.09l-.63,1.9,1.41,1.41,1.9-.63c1.61-.54,2.9-.23,4.09.97l7.99,7.99c1.2,1.2,1.5,2.49.97,4.09l-.63,1.9,1.41,1.41,1.9-.63c1.61-.54,2.9-.23,4.09.97l2.27,2.27-16,16-2.27-2.27c-1.2-1.2-1.5-2.49-.97-4.09l.63-1.9-1.41-1.41-1.9.63c-1.61.54-2.9.23-4.09-.97l-.46-.46Zm-1.54,20.46h28v-6h-28v6Z" /></svg>