<svg xmlns="http://www.w3.org/2000/svg"  viewBox="0 0 64 64"><defs /><path  d="m58,34v-4l-6.34-1.58c-.2-1.08-.48-2.13-.84-3.14l4.7-4.54-2-3.46-6.28,1.8c-.7-.83-1.47-1.6-2.3-2.3l1.8-6.28-3.46-2-4.54,4.7c-1.01-.36-2.06-.65-3.14-.84l-1.58-6.34h-4l-1.58,6.34c-1.08.2-2.13.48-3.14.84l-4.54-4.7-3.46,2,1.8,6.28c-.83.7-1.6,1.47-2.3,2.3l-6.28-1.8-2,3.46,4.7,4.54c-.36,1.01-.65,2.06-.84,3.14l-6.34,1.58v4l6.34,1.58c.2,1.08.48,2.13.84,3.14l-4.7,4.54,2,3.46,6.28-1.8c.7.83,1.47,1.6,2.3,2.3l-1.8,6.28,3.46,2,4.54-4.7c1.01.36,2.06.65,3.14.84l1.58,6.34h4l1.58-6.34c1.08-.2,2.13-.48,3.14-.84l4.54,4.7,3.46-2-1.8-6.28c.83-.7,1.6-1.47,2.3-2.3l6.28,1.8,2-3.46-4.7-4.54c.36-1.01.65-2.06.84-3.14l6.34-1.58Zm-40-2c0-4.1,1.77-7.77,4.57-10.33l5.96,10.33-5.96,10.33c-2.8-2.56-4.57-6.23-4.57-10.33Zm15.73-3l-5.97-10.34c1.34-.42,2.76-.66,4.24-.66,6.7,0,12.3,4.71,13.67,11h-11.94Zm0,6h11.94c-1.37,6.29-6.97,11-13.67,11-1.48,0-2.9-.23-4.24-.66l5.97-10.34Z" /></svg>