<svg xmlns="http://www.w3.org/2000/svg"  viewBox="0 0 64 64"><defs /><path  d="m36,49.66c1.88-.32,3.75-.86,5.57-1.65l1.83-.8-3.25-7.47c4.69-2.79,7.84-7.89,7.84-13.75,0-8.84-7.16-16-16-16-1.56,0-3.07.23-4.49.65l-3.24-7.46-1.83.8c-12.14,5.28-17.72,19.44-12.44,31.58,3.35,7.71,10.29,12.75,18.01,14.07v2.36h-12v4h32v-4h-12v-2.34Zm5.03-15.78c-.04-1.51-.27-3.19-.69-4.97l3.58-1.56c-.28,2.48-1.32,4.73-2.88,6.52Zm2.6-10.76l-4.48,1.95c-.23-.62-.47-1.24-.74-1.86s-.56-1.22-.85-1.81l4.48-1.95c.72,1.11,1.26,2.35,1.59,3.67Zm-4.51-6.76l-3.57,1.55c-1.01-1.52-2.08-2.83-3.16-3.89,2.52.08,4.83.94,6.72,2.34Zm-2.33,20.64s-.01,0-.02.01c-1.02.43-2.86-1.4-4.76-4.47l4.76-2.07c.95,3.48,1.03,6.07.02,6.53Zm-2.88-14.01c.28.59.57,1.19.84,1.82.27.63.52,1.24.76,1.85l-5.42,2.36c-.29-.59-.57-1.19-.84-1.82-.27-.63-.52-1.24-.76-1.85l5.42-2.36Zm-2.31,14.99c-2.52-.08-4.83-.94-6.72-2.34l3.57-1.55c1.01,1.52,2.08,2.83,3.16,3.89Zm-4.4-22.98s.01,0,.02-.01c1.02-.43,2.86,1.4,4.76,4.47l-4.76,2.07c-.95-3.48-1.03-6.07-.02-6.53Zm-2.36,11.93c.23.62.47,1.24.74,1.86s.56,1.22.85,1.81l-4.48,1.95c-.72-1.11-1.26-2.35-1.59-3.67l4.48-1.95Zm-4.76-2.29c.28-2.48,1.32-4.73,2.88-6.52.04,1.51.27,3.19.69,4.97l-3.58,1.56Zm-6.42,9.34c-4.13-9.49-.28-20.48,8.57-25.43l1.61,3.71c-4.69,2.79-7.84,7.89-7.84,13.75,0,8.84,7.16,16,16,16,1.56,0,3.07-.23,4.49-.65l1.61,3.7c-9.66,3.1-20.31-1.58-24.44-11.07Z" /></svg>