<svg xmlns="http://www.w3.org/2000/svg"  viewBox="0 0 64 64"><defs /><path  d="m56,18c-2.47,0-4,1.53-4,4v2c0,1.23-.77,2-2,2h-2.67l-1.36-8.16c-1.27-7.63-6.24-11.84-13.97-11.84s-12.7,4.21-13.97,11.84l-1.36,8.16h-2.67c-1.23,0-2-.77-2-2v-2c0-2.47-1.53-4-4-4s-4,1.53-4,4v2c0,7.07,4.19,11.56,11.01,11.96l-3.01,18.04s1.54,2,7,2,7.54-2,13-2,7.54,2,13,2,7-2,7-2l-3.01-18.04c6.82-.4,11.01-4.9,11.01-11.96v-2c0-2.47-1.53-4-4-4Zm-33,6v-4c0-1.85,1.15-3,3-3s3,1.15,3,3v4c0,1.85-1.15,3-3,3s-3-1.15-3-3Zm9,14c-2.33,0-4-1.67-4-4s1.67-4,4-4,4,1.66,4,4-1.67,4-4,4Zm9-14c0,1.85-1.15,3-3,3s-3-1.15-3-3v-4c0-1.85,1.15-3,3-3s3,1.15,3,3v4Z" /></svg>