<svg xmlns="http://www.w3.org/2000/svg"  viewBox="0 0 64 64"><defs /><path  d="m56,39c0,3.86-3.14,7-7,7-1.08,0-2.1-.25-3.02-.69-.16,3.72-3.23,6.69-6.98,6.69-2.19,0-4.15-1.01-5.43-2.6-.98,2.68-3.55,4.6-6.57,4.6-2.19,0-4.15-1.01-5.43-2.6-.98,2.68-3.55,4.6-6.57,4.6-3.86,0-7-3.14-7-7,0-3.01,1.92-5.58,4.6-6.57-1.58-1.28-2.6-3.24-2.6-5.43,0-3.01,1.92-5.58,4.6-6.57-1.58-1.28-2.6-3.24-2.6-5.43,0-3.76,2.98-6.82,6.69-6.98-.44-.91-.69-1.93-.69-3.02,0-3.86,3.14-7,7-7,3.52,0,6.43,2.61,6.92,6,1.05-.63,2.27-1,3.58-1,3.17,0,5.84,2.11,6.71,5,1.34-2.26,2.79-5.69,2.79-10l6,2c0,5-3.12,9.21-5.46,11.68,3.12.7,5.46,3.49,5.46,6.82,0,1.31-.37,2.53-1,3.58,3.38.49,6,3.4,6,6.92Z" /></svg>