<svg xmlns="http://www.w3.org/2000/svg"  viewBox="0 0 64 64"><defs /><path  d="m60,30.06c0,2.46-1.61,3.94-4.06,3.94h-7.94l-4,6,1.66,1.66c1.68,1.68,2.34,3.29,2.34,5.66v8.69h-6v-5.45c0-1.92-.91-3.19-2.74-3.79l-16.42-5.47c-1.77,1.67-4.14,2.7-6.76,2.72.5.46,1.04.86,1.65,1.16l3.44,1.72c2.17,1.09,2.85,3.11,1.76,5.28l-.92,1.85-4.52-2.26c-2.31-1.15-4.41-2.67-6.24-4.5l-2.54-2.54c-.44-.44-.7-1.03-.71-1.65-.01-.75.19-1.25.71-1.77l3.29-3.29-2-4h0c-3.7,0-6-2.3-6-6s2.3-6,6-6c.78,0,1.47.12,2.12.32,2.1-2.85,5.89-6.32,11.88-6.32,9.9,0,13.79,9.46,13.99,9.98,1.44-.12,2.43-.82,3.12-2.19l1.46-2.92-6.57-13.13,3.47-1.73c5.79,1.93,10.03,6.54,11.28,12.23,5.79,1.02,9.28,5.35,9.25,11.82Z" /></svg>