<svg xmlns="http://www.w3.org/2000/svg"  viewBox="0 0 64 64"><defs /><path  d="m52,32c0-2.57-.5-5.02-1.39-7.28l7.14-4.12-3-5.2-7.13,4.12c-3.07-3.84-7.53-6.5-12.61-7.27V4h-6v8.25c-5.09.77-9.54,3.43-12.61,7.27l-7.13-4.12-3,5.2,7.14,4.12c-.88,2.26-1.39,4.71-1.39,7.28s.5,5.02,1.39,7.28l-7.14,4.12,3,5.2,7.13-4.12c3.07,3.84,7.53,6.5,12.61,7.27v8.25h6v-8.25c5.09-.77,9.54-3.43,12.61-7.27l7.13,4.12,3-5.2-7.14-4.12c.88-2.26,1.39-4.71,1.39-7.28Zm-6,0c0,1.48-.23,2.9-.66,4.24l-7.34-4.24,7.34-4.24c.42,1.34.66,2.76.66,4.24Zm-3.67-9.43l-7.33,4.23v-8.47c2.88.63,5.41,2.14,7.33,4.24Zm-13.33-4.24v8.47l-7.33-4.23c1.92-2.1,4.45-3.61,7.33-4.24Zm-11,13.67c0-1.48.23-2.9.66-4.24l7.34,4.24-7.34,4.24c-.42-1.34-.66-2.76-.66-4.24Zm3.67,9.43l7.33-4.23v8.47c-2.88-.63-5.41-2.14-7.33-4.24Zm13.33,4.24v-8.47l7.33,4.23c-1.92,2.1-4.45,3.61-7.33,4.24Z" /></svg>