<svg xmlns="http://www.w3.org/2000/svg"  viewBox="0 0 64 64"><defs /><path  d="m29.21,37.04c-.68,1.12-1.21,2-1.21,3.12,0,2.03,1.83,3.02,1.91,3.06l-1.8,3.57c-1.53-.76-4.11-3.01-4.11-6.63,0-2.23.99-3.87,1.79-5.19.68-1.12,1.21-2,1.21-3.12,0-1.83-2.03-3.13-2.06-3.14l2.1-3.41c.16.1,3.96,2.47,3.96,6.55,0,2.23-.99,3.87-1.79,5.19Zm22.79-29.04v48H12V8h40Zm-6,28c0-7.73-6.27-14-14-14s-14,6.27-14,14,6.27,14,14,14,14-6.27,14-14Zm0-19c0-1.66-1.34-3-3-3s-3,1.34-3,3,1.34,3,3,3,3-1.34,3-3Zm-6,14.84c0-4.08-3.79-6.45-3.96-6.55l-2.1,3.41s2.06,1.32,2.06,3.14c0,1.12-.53,2-1.21,3.12-.8,1.32-1.79,2.96-1.79,5.19,0,3.62,2.58,5.88,4.11,6.63l1.8-3.57c-.08-.04-1.91-1.03-1.91-3.06,0-1.12.53-2,1.21-3.12.8-1.32,1.79-2.96,1.79-5.19Z" /></svg>