<svg xmlns="http://www.w3.org/2000/svg"  viewBox="0 0 64 64"><defs /><path  d="m56,37c0-3.16-.4-6.17-1.16-8.99-2.17,1.63-4.62,2.99-6.59,2.99-1.38,0-2.5-1.12-2.5-2.5,0-2.48,3.7-3.21,6.89-6.21-1.61-3.15-3.8-5.98-6.54-8.45-1.07,2.36-3.44,7.17-6.6,7.17-1.38,0-2.5-1.12-2.5-2.5,0-2.51,3.98-4.17,3.98-8.5l.14.07-9.11-6.07-9,6c0,4.33,4,5.99,4,8.5,0,1.38-1.12,2.5-2.5,2.5-3.16,0-5.55-4.79-6.62-7.15-2.73,2.47-4.92,5.29-6.52,8.44,3.19,3,6.89,3.73,6.89,6.21,0,1.38-1.12,2.5-2.5,2.5-1.96,0-4.41-1.36-6.59-2.99-.77,2.82-1.16,5.83-1.16,8.99,0,0,1.86,2.85,9,4l-6.37,4.25c2.13,2.84,5.52,4.75,10.09,4.75,5.29,0,9.29-3,9.29-3,0,0-1,5-1,9h6c0-4-1-9-1-9,0,0,4,3,9.29,3,4.57,0,7.96-1.91,10.09-4.75l-6.37-4.25c7.14-1.15,9-4,9-4Zm-30,3c-2.47,0-4-1.34-4-3.5s1.53-3.5,4-3.5,4,1.34,4,3.5-1.53,3.5-4,3.5Zm11-9c-1.85,0-3-.96-3-2.5s1.15-2.5,3-2.5,3,.96,3,2.5-1.15,2.5-3,2.5Z" /></svg>