<svg xmlns="http://www.w3.org/2000/svg"  viewBox="0 0 64 64"><defs /><path  d="m52,46c0,3.31-2.69,6-6,6s-6-2.69-6-6c0-3.98.92-7.5,1.9-11.24,1.03-3.94,2.1-8.01,2.1-12.76,0-8.82-7.18-16-16-16S12,13.18,12,22c0,4.59,2.05,8.37,4.12,12.01-.04,0-.08,0-.12,0-5.51,0-10,4.49-10,10s4.49,10,10,10,10-4.49,10-10c0-4.8-2.23-8.71-4.4-12.49-1.85-3.24-3.6-6.31-3.6-9.51,0-5.51,4.49-10,10-10s10,4.49,10,10c0,3.98-.92,7.5-1.9,11.24-1.03,3.94-2.1,8.01-2.1,12.76,0,6.62,5.38,12,12,12s12-5.38,12-12h-6Zm-32-2c0,2.21-1.79,4-4,4s-4-1.79-4-4,1.79-4,4-4,4,1.79,4,4Z" /></svg>