<svg xmlns="http://www.w3.org/2000/svg"  viewBox="0 0 64 64"><defs /><path  d="m60,24.34h0c0,3.12-2.53,5.66-5.66,5.66-1.75,0-3.31-.79-4.34-2.03,0-3.46-2.75-5.97-5.9-5.97h0c-1.56,0-3.07.62-4.17,1.73l-17.59,17.59c-1.68,1.68-2.34,3.29-2.34,5.66v3.03c0,2.47-1.53,4-4,4s-4-1.53-4-4v-4h-4c-2.47,0-4-1.53-4-4s1.53-4,4-4h3.03c2.37,0,3.98-.67,5.66-2.34l23.66-23.66c1.43-1.43,2.81-2,4.83-2s3.4.57,4.83,2l.17.17c-.78.78-1.17,1.8-1.17,2.83,0,2.21,1.79,4,4,4,1.02,0,2.05-.39,2.83-1.17l2.51,2.51c1.06,1.06,1.66,2.5,1.66,4Z" /></svg>