<svg xmlns="http://www.w3.org/2000/svg"  viewBox="0 0 64 64"><defs /><path  d="m29,10c0-1.66.79-2.78,3-5.5,2.21,2.72,3,3.84,3,5.5s-1.34,3-3,3-3-1.34-3-3Zm-5,9c1.66,0,3-1.34,3-3s-.79-2.78-3-5.5c-2.21,2.72-3,3.84-3,5.5s1.34,3,3,3Zm24,0c1.66,0,3-1.34,3-3s-.79-2.78-3-5.5c-2.21,2.72-3,3.84-3,5.5s1.34,3,3,3Zm-8,0c1.66,0,3-1.34,3-3s-.79-2.78-3-5.5c-2.21,2.72-3,3.84-3,5.5s1.34,3,3,3Zm-24,0c1.66,0,3-1.34,3-3s-.79-2.78-3-5.5c-2.21,2.72-3,3.84-3,5.5s1.34,3,3,3Zm40-8.5c-2.21,2.72-3,3.84-3,5.5s1.34,3,3,3,3-1.34,3-3-.79-2.78-3-5.5Zm-45,5.5c0-1.66-.79-2.78-3-5.5-2.21,2.72-3,3.84-3,5.5s1.34,3,3,3,3-1.34,3-3Zm23,27.92v-4c9.93-.79,16-7.5,16-17.92h-4c0,7.95-4.55,13.11-12,13.89v-4.04c4.98-.75,8-4.38,8-9.85h-4c0,2.97-1.5,5.02-4,5.71v-11.71h-4v11.71c-2.5-.7-4-2.74-4-5.71h-4c0,5.47,3.02,9.1,8,9.85v4.04c-7.45-.78-12-5.94-12-13.89h-4c0,10.42,6.07,17.13,16,17.92v4c-12.39-.8-20-9.03-20-21.92h-4c0,15.36,9.14,25.14,24,25.94v4.06h-14v4h32v-4h-14v-4.06c14.86-.8,24-10.58,24-25.94h-4c0,12.89-7.61,21.12-20,21.92Z" /></svg>