<svg xmlns="http://www.w3.org/2000/svg"  viewBox="0 0 64 64"><defs /><path  d="m42.67,8c-5.27,0-10.04,3.1-12.19,7.92l-1.87,4.21-4.13-4.13-8.49,8.49,4.13,4.13-4.21,1.87c-4.82,2.14-7.92,6.92-7.92,12.19h0c0,7.36,5.97,13.33,13.33,13.33,5.27,0,10.04-3.1,12.19-7.92l1.87-4.21,4.13,4.13,8.49-8.49-4.13-4.13,4.21-1.87c4.82-2.14,7.92-6.92,7.92-12.19,0-7.36-5.97-13.33-13.33-13.33Zm2.98,20.04l-5.39,2.4c-4.38,1.95-7.87,5.43-9.82,9.82l-2.4,5.39c-1.18,2.65-3.81,4.36-6.7,4.36-4.04,0-7.33-3.29-7.33-7.33,0-2.9,1.71-5.53,4.36-6.7l5.39-2.4c4.38-1.95,7.87-5.43,9.82-9.82l2.4-5.39c1.18-2.65,3.81-4.36,6.7-4.36,4.04,0,7.33,3.29,7.33,7.33,0,2.9-1.71,5.53-4.36,6.7Z" /></svg>