<svg xmlns="http://www.w3.org/2000/svg"  viewBox="0 0 64 64"><defs /><path  d="m6,12v40h52V12H6Zm34,30c0,2.47-1.53,4-4,4h-20c-2.47,0-4-1.53-4-4v-20c0-2.47,1.53-4,4-4h20c2.47,0,4,1.53,4,4v20Zm9-18c-1.66,0-3-1.34-3-3s1.34-3,3-3,3,1.34,3,3-1.34,3-3,3Zm-14.78.09l3.56,1.82c-.11.21-2.65,5.09-7.16,5.09-2.51,0-4.33-1.32-5.79-2.38-1.38-1-2.29-1.62-3.44-1.62-2.32,0-3.53,2.75-3.54,2.78l-3.69-1.54c.09-.21,2.23-5.23,7.23-5.23,2.51,0,4.33,1.32,5.79,2.38,1.38,1,2.29,1.62,3.44,1.62,2.03,0,3.59-2.88,3.6-2.91Zm0,10l3.56,1.82c-.11.21-2.65,5.09-7.16,5.09-2.51,0-4.33-1.32-5.79-2.38-1.38-1-2.29-1.62-3.44-1.62-2.32,0-3.52,2.74-3.53,2.76l-3.7-1.53c.09-.21,2.23-5.24,7.23-5.24,2.51,0,4.33,1.32,5.79,2.38,1.38,1,2.29,1.62,3.44,1.62,2.03,0,3.59-2.88,3.6-2.91Z" /></svg>