<svg xmlns="http://www.w3.org/2000/svg"  viewBox="0 0 64 64"><defs /><path  d="m32,8c-13.26,0-24,10.74-24,24s10.74,24,24,24,24-10.74,24-24-10.74-24-24-24Zm-1.91,6.11l-15.98,15.98c.89-8.44,7.54-15.09,15.98-15.98Zm-15.75,21.4l21.16-21.16c1.45.29,2.87.77,4.23,1.42l-23.98,23.98c-.65-1.36-1.13-2.78-1.42-4.23Zm3.59,7.72l25.29-25.29c1.11.89,1.94,1.72,2.83,2.83l-25.29,25.29c-1.11-.89-1.94-1.72-2.83-2.83Zm10.55,6.42c-1.45-.29-2.87-.77-4.23-1.42l23.98-23.98c.65,1.36,1.13,2.78,1.42,4.23l-21.16,21.16Zm5.42.24l15.98-15.98c-.89,8.44-7.54,15.09-15.98,15.98Z" /></svg>