<svg xmlns="http://www.w3.org/2000/svg"  viewBox="0 0 64 64"><defs /><path  d="m14,36h-6v-10.6l21-10.5v-6.9h6v6.9l21,10.5v10.6h-6v-6.9l-15-7.5v14.4h-6v-14.4l-15,7.5v6.9Zm26.98,8h-6.31l-1.95-6h-1.45l-1.95,6h-6.31l-.45,1.38,5.1,3.71-1.95,6,1.17.85,5.1-3.7s.01,0,.02,0l5.1,3.7,1.17-.85-1.95-6,5.1-3.71-.45-1.38Zm-25.98-1c.12,0,.24.03.36.04l.64-1.28c-1.37-1.1-3.11-1.76-5-1.76-4.42,0-8,3.58-8,8s3.58,8,8,8c1.89,0,3.63-.66,5-1.76l-.64-1.28c-.12,0-.24.04-.36.04-2.76,0-5-2.24-5-5s2.24-5,5-5Zm38-3c-4.42,0-8,3.58-8,8s3.58,8,8,8,8-3.58,8-8-3.58-8-8-8Z" /></svg>