<svg xmlns="http://www.w3.org/2000/svg"  viewBox="0 0 64 64"><defs /><path  d="m28,50h8v10h-8v-10Zm22.62-11.41l-5.14,15.41h-5.49v-8h-16v8h-5.49l-5.14-15.41c-1.83-5.5-1.83-9.67,0-15.18l4.1-12.31c2.54-1.24,6.17-2.49,10.94-2.93l1.68-5.17h3.81l1.68,5.17c4.76.44,8.4,1.7,10.94,2.93l4.1,12.31c1.83,5.5,1.83,9.67,0,15.18Zm-25.62-1.59c0-1.66-1.34-3-3-3s-3,1.34-3,3,1.34,3,3,3,3-1.34,3-3Zm20,0c0-1.66-1.34-3-3-3s-3,1.34-3,3,1.34,3,3,3,3-1.34,3-3Zm.83-9l-4.14-12.44c-2.39-.85-5.6-1.56-9.68-1.56s-7.3.71-9.68,1.56c0,0-3.52,10.55-4.14,12.44h27.66Z" /></svg>