<svg xmlns="http://www.w3.org/2000/svg" viewBox="0 0 64 64"><path d="M2.8089 49.4855V14.5145H9.38996L25.9732 39.959V14.5145H31.9732V49.4855H25.0203L8.8089 24.6116V49.4855H2.8089Z M36.3411 26.9395C36.3411 20.0773 41.904 14.5145 48.7661 14.5145C55.6283 14.5145 61.1911 20.0773 61.1911 26.9395C61.1911 33.8016 55.6283 39.3645 48.7661 39.3645C41.904 39.3645 36.3411 33.8016 36.3411 26.9395ZM48.7661 20.5145C45.2177 20.5145 42.3411 23.391 42.3411 26.9395C42.3411 30.4879 45.2177 33.3645 48.7661 33.3645C52.3146 33.3645 55.1911 30.4879 55.1911 26.9395C55.1911 23.391 52.3146 20.5145 48.7661 20.5145Z M60.85 43.4855L36.3411 43.4855V49.4855L60.85 49.4855V43.4855Z"/></svg>