<svg xmlns="http://www.w3.org/2000/svg"  viewBox="0 0 64 64"><defs /><path  d="m53.6,21.52c.88-1.29,1.4-2.84,1.4-4.52,0-4.42-3.58-8-8-8-1.68,0-3.24.52-4.52,1.4-3.17-1.54-6.72-2.4-10.48-2.4-13.25,0-24,10.75-24,24s10.75,24,24,24,24-10.75,24-24c0-3.76-.86-7.31-2.4-10.48Zm-21.6,28.48c-9.94,0-18-8.06-18-18s8.06-18,18-18c2.54,0,4.96.53,7.15,1.48-.09.49-.15,1-.15,1.52,0,4.42,3.58,8,8,8,.52,0,1.03-.05,1.52-.15.95,2.19,1.48,4.61,1.48,7.15,0,9.94-8.06,18-18,18Zm8-18c0,4.42-3.58,8-8,8s-8-3.58-8-8,3.58-8,8-8,8,3.58,8,8Z" /></svg>