<svg xmlns="http://www.w3.org/2000/svg"  viewBox="0 0 64 64"><defs /><path  d="m30,44h-6v-12.93l6,6v6.93Zm5-24h-7.93l5.4,5.4h1.93c2.22,0,3.6,1.38,3.6,3.6,0,.61-.11,1.15-.31,1.62l4.4,4.4c1.23-1.52,1.91-3.56,1.91-6.02,0-5.55-3.45-9-9-9Zm21,12c0,13.25-10.75,24-24,24s-24-10.75-24-24,10.75-24,24-24,24,10.75,24,24Zm-13.58,14.66l-25.08-25.08c-2.09,2.94-3.34,6.53-3.34,10.42,0,9.94,8.06,18,18,18,3.89,0,7.48-1.24,10.42-3.34Zm7.58-14.66c0-9.94-8.06-18-18-18-3.89,0-7.48,1.24-10.42,3.34l25.08,25.08c2.09-2.94,3.34-6.53,3.34-10.42Z" /></svg>