<svg xmlns="http://www.w3.org/2000/svg"  viewBox="0 0 64 64"><defs /><path  d="m44,48c0,3.7-2.3,6-6,6H8c-4.94,0-8-3.06-8-8,0-4.23,2.26-7.08,6.01-7.81,0-.06,0-.13,0-.19,0-7.4,4.6-12,12-12,5.61,0,9.61,2.64,11.21,7.15.56-.1,1.16-.15,1.79-.15,4.94,0,8,3.06,8,8,0,.37-.02.73-.06,1.08,3.14.37,5.06,2.55,5.06,5.92Zm17.97-25.02c-1.46,3.71-5.07,6.35-9.3,6.35-5.52,0-10-4.48-10-10,0-4.23,2.63-7.84,6.35-9.3l-1.02-2.03c-8.84,0-16,7.16-16,16,0,1.8.31,3.52.85,5.13,5.54.69,9.33,4.48,10.02,10.02,1.61.55,3.33.85,5.13.85,8.84,0,16-7.16,16-16l-2.03-1.02Z" /></svg>