<svg xmlns="http://www.w3.org/2000/svg"  viewBox="0 0 64 64"><defs /><path  d="m44,48c0,3.7-2.3,6-6,6H8c-4.94,0-8-3.06-8-8,0-4.23,2.26-7.08,6.01-7.81,0-.06,0-.13,0-.19,0-7.4,4.6-12,12-12,5.61,0,9.61,2.64,11.21,7.15.56-.1,1.16-.15,1.79-.15,4.94,0,8,3.06,8,8,0,.37-.02.73-.06,1.08,3.14.37,5.06,2.55,5.06,5.92Zm-3-40h-4v10h4v-10Zm13,23v4h10v-4h-10Zm-24.19-10.02l-7.07-7.07-2.83,2.83,7.07,7.07,2.83-2.83Zm18.38,24.04l7.07,7.07,2.83-2.83-7.07-7.07-2.83,2.83Zm9.9-28.28l-2.83-2.83-7.07,7.07,2.83,2.83,7.07-7.07Zm-19.09,5.26c-3.77,0-7.09,1.9-9.07,4.79.64.68,1.21,1.43,1.7,2.24,6.18.25,10.48,4.17,11.24,10.08,1.19.6,2.21,1.44,3.02,2.46,2.5-2.02,4.11-5.1,4.11-8.57,0-6.08-4.92-11-11-11Z" /></svg>