<svg xmlns="http://www.w3.org/2000/svg"  viewBox="0 0 64 64"><defs /><path  d="m25.46,34c.27,1.7.66,3.31,1.18,4.73-2.1-1.05-3.85-2.7-5.02-4.73h3.84Zm-3.84-12h3.84c.27-1.7.66-3.31,1.18-4.73-2.1,1.05-3.85,2.7-5.02,4.73Zm3.38,6c0-.66.02-1.33.06-2h-4.88c-.11.65-.18,1.32-.18,2s.07,1.35.18,2h4.88c-.03-.67-.06-1.34-.06-2Zm4.51-6h4.98c-1.48-8-3.51-8-4.98,0Zm12.87,0c-1.17-2.03-2.92-3.67-5.02-4.73.52,1.41.91,3.02,1.18,4.73h3.84Zm-3.38,6c0,.66-.02,1.33-.06,2h4.88c.11-.65.18-1.32.18-2s-.07-1.35-.18-2h-4.88c.03.67.06,1.34.06,2Zm13-12v32c0,4.94-3.06,8-8,8H12V8h32c4.94,0,8,3.06,8,8Zm-14,32h-12v4h12v-4Zm10-20c0-8.84-7.16-16-16-16s-16,7.16-16,16,7.16,16,16,16,16-7.16,16-16Zm-18.94-2c-.03.64-.06,1.3-.06,2s.02,1.36.06,2h5.89c.03-.64.06-1.3.06-2s-.02-1.36-.06-2h-5.89Zm5.43,8h-4.98c1.48,8,3.51,8,4.98,0Zm2.87,4.73c2.1-1.05,3.85-2.7,5.02-4.73h-3.84c-.27,1.7-.66,3.31-1.18,4.73Z" /></svg>