<svg xmlns="http://www.w3.org/2000/svg"  viewBox="0 0 64 64"><defs /><path  d="m11,12c0-3.09,1.91-5,5-5s5,1.91,5,5-1.91,5-5,5-5-1.91-5-5Zm37,5c3.09,0,5-1.91,5-5s-1.91-5-5-5-5,1.91-5,5,1.91,5,5,5Zm4.75,14.5l1.76-3.53,4.01,8.03,4.47-2.24-3.57-7.13c-2.27-4.54-5.1-6.63-11.43-6.63s-9.16,2.09-11.43,6.63l-3.57,7.13,4.47,2.24,4.01-8.03,1.76,3.53-6.25,12.5h7v12h8v-12h7l-6.25-12.5Zm-30.17-3.39l3.95,7.89,4.47-2.24-3.57-7.13c-2.27-4.54-5.1-6.63-11.43-6.63s-9.16,2.09-11.43,6.63l-3.57,7.13,4.47,2.24,3.95-7.89c.38-.76.82-1.11,1.58-1.11v8l-7,21h6.32l5.68-17.03,5.68,17.03h6.32l-7-21v-8c.76,0,1.2.35,1.58,1.11Z" /></svg>