<svg xmlns="http://www.w3.org/2000/svg"  viewBox="0 0 64 64"><defs /><path  d="m55.01,40.01c1.91-3.83,2.99-8.16,2.99-12.27,0-10.44-6.12-17.74-14.88-17.74-5,0-8.65,2.4-11.12,5.27-2.47-2.88-6.12-5.27-11.12-5.27-8.76,0-14.88,7.29-14.88,17.74,0,4.11,1.08,8.44,2.99,12.27-1.69,1.09-2.33,3.31-1.41,5.15.99,1.98,3.39,2.78,5.37,1.79l.68-.34c3.61,3.72,9.44,7.39,18.38,7.39s14.76-3.67,18.38-7.39l.68.34c1.97.99,4.38.19,5.37-1.79.92-1.84.29-4.06-1.41-5.15ZM14,27.74c0-4.49,1.8-9.74,6.88-9.74,4.61,0,6.61,4.64,7.12,6.09v6.39l-11.87,5.93c-1.48-2.94-2.13-6.08-2.13-8.67Zm18,18.26c-4.45,0-7.95-1.29-10.63-3.26l10.63-5.32,10.63,5.32c-2.68,1.98-6.18,3.26-10.63,3.26Zm15.87-9.59l-11.87-5.93v-6.38c.52-1.48,2.52-6.09,7.12-6.09,5.08,0,6.88,5.25,6.88,9.74,0,2.59-.66,5.73-2.13,8.67Z" /></svg>