<svg xmlns="http://www.w3.org/2000/svg"  viewBox="0 0 64 64"><defs /><path  d="m50,36c-1.67,0-3.24.41-4.62,1.14l-7.14-7.14h7.76v-6h-18v18h6v-7.76l7.14,7.14c-.72,1.38-1.14,2.95-1.14,4.62,0,5.52,4.48,10,10,10s10-4.48,10-10-4.48-10-10-10Zm0,14c-2.21,0-4-1.79-4-4s1.79-4,4-4,4,1.79,4,4-1.79,4-4,4ZM26,18c0-5.52-4.48-10-10-10s-10,4.48-10,10c0,4.48,2.94,8.27,7,9.54v8.92c-4.06,1.27-7,5.06-7,9.54,0,5.52,4.48,10,10,10s10-4.48,10-10c0-4.48-2.94-8.27-7-9.54v-8.92c4.06-1.27,7-5.06,7-9.54Zm-10-4c2.21,0,4,1.79,4,4s-1.79,4-4,4-4-1.79-4-4,1.79-4,4-4Zm0,36c-2.21,0-4-1.79-4-4s1.79-4,4-4,4,1.79,4,4-1.79,4-4,4Z" /></svg>