<svg xmlns="http://www.w3.org/2000/svg"  viewBox="0 0 64 64"><defs /><path  d="m59.95,33c0,3.7-1.91,6-5,6-1.82,0-3.22-.81-4.06-2.23-.32-.53-.73-.77-1.35-.77-.98,0-1.59.71-1.59,1.59l.05,16.41h-13.41c-.98,0-1.59-.61-1.59-1.59,0-.62.24-1.03.77-1.35,1.42-.85,2.23-2.25,2.23-4.06,0-3.09-2.3-5-6-5s-6,1.91-6,5c0,1.82.81,3.22,2.23,4.06.53.32.77.73.77,1.35,0,.98-.61,1.59-1.59,1.59H4l4.28-17.1c.48-1.9,1.76-2.9,3.93-2.9,1.47,0,2.37.49,3.24,1.48.85.97,2.06,1.52,3.55,1.52,3.09,0,5-2.3,5-6s-1.91-6-5-6c-1.7,0-3.03.71-3.89,1.96-.48.69-1,1.04-1.85,1.04-1.57,0-2.47-1.16-2.09-2.68l2.33-9.32h11.92c.98,0,1.58-.61,1.58-1.59,0-.62-.24-1.03-.77-1.35-1.42-.85-2.23-2.25-2.23-4.06,0-3.09,2.3-5,6-5s6,1.91,6,5c0,1.82-.81,3.22-2.23,4.06-.53.32-.77.73-.77,1.35,0,.98.61,1.59,1.59,1.59h13.41l-.05,12.41c0,.98.61,1.59,1.59,1.59.62,0,1.03-.24,1.35-.77.85-1.42,2.25-2.23,4.06-2.23,3.09,0,5,2.3,5,6Z" /></svg>