<svg xmlns="http://www.w3.org/2000/svg"  viewBox="0 0 64 64"><defs /><path  d="m24.53,50.55c2.31.93,4.82,1.45,7.47,1.45,10.11,0,18.45-7.52,19.79-17.26-3.96,2.95-8.43,5.9-13.21,8.67-4.82,2.79-9.57,5.19-14.04,7.14ZM63.67,13.65c-1.69-2.94-9.53-1.81-19.78,2.29-3.32-2.47-7.43-3.94-11.89-3.94-11.05,0-20,8.95-20,20,0,.79.06,1.57.15,2.34C3.51,41.18-1.36,47.42.33,50.35c2.52,4.39,18.75-.27,36.24-10.4,17.49-10.13,29.62-21.91,27.1-26.29ZM10.23,44.61c-.75-1.3.37-3.53,2.84-6.21.87,2.55,2.23,4.86,3.98,6.83-3.56.81-6.07.68-6.82-.62Zm40.7-19.01c-.86-2.55-2.21-4.87-3.95-6.84,3.55-.81,6.05-.67,6.8.63.75,1.3-.37,3.53-2.85,6.22Z" /></svg>