<svg xmlns="http://www.w3.org/2000/svg"  viewBox="0 0 64 64"><defs /><path  d="m35,12c0-3.09,1.91-5,5-5s5,1.91,5,5-1.91,5-5,5-5-1.91-5-5Zm6.51,16.74c1.97,2.34,4.43,5.26,10.49,5.26v-5c-3.74,0-4.9-1.38-6.67-3.48-2.07-2.46-4.65-5.52-11.33-5.52-9.65,0-15.18,5.13-19,12.76l4.47,2.24c2.77-5.54,5.71-8.34,9.74-9.43l-4.95,9.9c-1.89,3.79-4.71,5.53-8.94,5.53h-4.32v6h4.32c6.7,0,11.19-2.74,14.21-8.66,2.64,2,10.54,8.63,12.77,17.66l5.69-1.9c-2.21-8.96-8.54-15.45-12.63-18.85l4.26-8.51c.66.57,1.24,1.25,1.88,2.01Z" /></svg>