<svg xmlns="http://www.w3.org/2000/svg"  viewBox="0 0 64 64"><defs /><path  d="m44,8c-3.07,0-6.14,1.17-8.49,3.51l-24,24c-2.34,2.34-3.51,5.41-3.51,8.49,0,6.63,5.37,12,12,12,3.07,0,6.14-1.17,8.49-3.51l24-24c2.34-2.34,3.51-5.41,3.51-8.49,0-6.63-5.37-12-12-12Zm-24,42c-3.31,0-6-2.69-6-6s2.69-6,6-6,6,2.69,6,6-2.69,6-6,6Zm23.83-26h-1.82c-2.65,0-4.53,2.02-4.53,3.83,0,.41.08.84.23,1.3l1.41,4.24-7.54,7.54c-1.11-4.13-4.36-7.38-8.49-8.49l7.54-7.54c.46.15.89.23,1.3.23.89,0,1.67-.36,2.41-1.1l6.83-6.83c.78-.78,1.8-1.17,2.83-1.17,2.21,0,4,1.79,4,4,0,2.86-2.62,4-4.17,4Z" /></svg>