<svg xmlns="http://www.w3.org/2000/svg"  viewBox="0 0 64 64"><defs /><path  d="m34,34s2-4.14,2-12-2-12-2-12h.06c11.73,0,17.94,12,17.94,24h-18Zm-2-28h-4L12,30v4h20V6Zm12,46c-3.86,0-6.03-4-12-4s-8.22,4-12,4-6.03-4-12-4v6c3.86,0,6.03,4,12,4s8.22-4,12-4,6.03,4,12,4,8.22-4,12-4v-6c-5.89,0-8.22,4-12,4Zm-24-4c.62,0,1.52-.51,2.65-1.15,2.12-1.2,5.02-2.85,9.35-2.85s7.25,1.65,9.35,2.85c.94.54,1.59.9,2.13,1.06,5.3-.57,8.53-4.25,8.53-9.91H12v6.51c2.25.58,3.97,1.55,5.35,2.35,1.28.73,2.03,1.15,2.65,1.15Z" /></svg>