<svg xmlns="http://www.w3.org/2000/svg"  viewBox="0 0 64 64"><defs /><path  d="m13,12c0-3.09,1.91-5,5-5s5,1.91,5,5-1.91,5-5,5-5-1.91-5-5Zm35,5c3.09,0,5-1.91,5-5s-1.91-5-5-5-5,1.91-5,5,1.91,5,5,5Zm11,27h-7v12h-8v-12h-7l6.25-12.5-1.76-3.53-4.01,8.03H2v-4h1.88l2.68-5.37c2.27-4.54,5.1-6.63,11.43-6.63s9.16,2.09,11.43,6.63l2.68,5.37h1.76l2.68-5.37c2.27-4.54,5.1-6.63,11.43-6.63s9.16,2.09,11.43,6.63l3.57,7.13-4.47,2.24-4.01-8.03-1.76,3.53,6.25,12.5Zm-46-12v-5c-.76,0-1.2.35-1.58,1.11l-1.95,3.89h3.53Zm13.53,0l-1.95-3.89c-.38-.76-.82-1.11-1.58-1.11v5h3.53Z" /></svg>