<svg xmlns="http://www.w3.org/2000/svg"  viewBox="0 0 64 64"><defs /><path  d="m48.57,41.34c2.86-3.37,4.43-7.9,4.43-13.34,0-12.34-8.04-20-21-20S11,15.66,11,28c0,5.44,1.57,9.97,4.43,13.34l-.91,1.83c-.35.7-.52,1.39-.52,2.04,0,1.67,1.11,3.05,3.08,3.54l4.92,1.23v4.03h20v-4.03l4.92-1.23c1.97-.49,3.08-1.87,3.08-3.54,0-.65-.17-1.34-.52-2.04l-.91-1.83Zm-30.57-6.84c0-2.78,3.72-4.5,6.5-4.5s4.5,1.72,4.5,4.5-3.72,4.5-6.5,4.5-4.5-1.72-4.5-4.5Zm10,11.5l4-8,4,8h-8Zm13.5-7c-2.78,0-6.5-1.72-6.5-4.5s1.72-4.5,4.5-4.5,6.5,1.72,6.5,4.5-1.72,4.5-4.5,4.5Z" /></svg>