<svg xmlns="http://www.w3.org/2000/svg"  viewBox="0 0 64 64"><defs /><path  d="m54,30c0,3.7-2.3,6-6,6h-30c-4.94,0-8-3.06-8-8,0-4.23,2.26-7.08,6.01-7.81,0-.06,0-.13,0-.19,0-7.4,4.6-12,12-12,5.61,0,9.61,2.64,11.21,7.15.56-.1,1.16-.15,1.79-.15,4.94,0,8,3.06,8,8,0,.37-.02.73-.06,1.08,3.14.37,5.06,2.55,5.06,5.92Zm-22,10c-1.85,0-3,1.15-3,3s1.15,3,3,3,3-1.15,3-3-1.15-3-3-3Zm-17,10c-1.85,0-3,1.15-3,3s1.15,3,3,3,3-1.15,3-3-1.15-3-3-3Zm24,0c-1.85,0-3,1.15-3,3s1.15,3,3,3,3-1.15,3-3-1.15-3-3-3Zm-19.5-10l-4,8h4l4-8h-4Zm4,16h4l4-8h-4l-4,8Zm16-8h4l4-8h-4l-4,8Z" /></svg>