<svg xmlns="http://www.w3.org/2000/svg"  viewBox="0 0 64 64"><defs /><path  d="m53,20.52v-12.52h-6v12.52c-3.49,1.24-6,4.56-6,8.48s2.51,7.24,6,8.48v18.52h6v-18.52c3.49-1.24,6-4.56,6-8.48s-2.51-7.24-6-8.48Zm-3,11.48c-1.66,0-3-1.34-3-3s1.34-3,3-3,3,1.34,3,3-1.34,3-3,3Zm-15,2.52V8h-6v26.52c-3.49,1.24-6,4.56-6,8.48s2.51,7.24,6,8.48v4.52h6v-4.52c3.49-1.24,6-4.56,6-8.48s-2.51-7.24-6-8.48Zm-3,11.48c-1.66,0-3-1.34-3-3s1.34-3,3-3,3,1.34,3,3-1.34,3-3,3ZM17,12.52v-4.52h-6v4.52c-3.49,1.24-6,4.56-6,8.48s2.51,7.24,6,8.48v26.52h6v-26.52c3.49-1.24,6-4.56,6-8.48s-2.51-7.24-6-8.48Zm-3,11.48c-1.66,0-3-1.34-3-3s1.34-3,3-3,3,1.34,3,3-1.34,3-3,3Z" /></svg>