<svg xmlns="http://www.w3.org/2000/svg"  viewBox="0 0 64 64"><defs /><path  d="m31.93,39h-13.93v-6h7.93l6,6Zm24.07-7c0,13.25-10.75,24-24,24s-24-10.75-24-24,10.75-24,24-24,24,10.75,24,24Zm-13.58,14.66l-25.08-25.08c-2.09,2.94-3.34,6.53-3.34,10.42,0,9.94,8.06,18,18,18,3.89,0,7.48-1.24,10.42-3.34Zm7.58-14.66c0-9.94-8.06-18-18-18-3.89,0-7.48,1.24-10.42,3.34l25.08,25.08c2.09-2.94,3.34-6.53,3.34-10.42Zm-9,1.93l4,4v-4.93h-4v.93Zm-1-10.93h-.08c.06-.32.08-.65.08-1,0-2.94-2.06-5-5-5h-7v4h4.08c-.06.32-.08.65-.08,1,0,2.94,2.06,5,5,5h3c.75,0,1,.25,1,1v1h4v-1c0-2.94-2.06-5-5-5Z" /></svg>