<svg xmlns="http://www.w3.org/2000/svg"  viewBox="0 0 64 64"><defs /><path  d="m55.66,39.01l-7.86,2.11,2.11,7.86-5.79,1.55-2.56-9.56-6.55-3.78v7.56l7,7-4.24,4.24-5.76-5.76-5.76,5.76-4.24-4.24,7-7v-7.56l-6.55,3.78-2.56,9.56-5.79-1.55,2.11-7.86-7.86-2.11,1.55-5.79,9.56,2.56,6.55-3.78-6.55-3.78-9.56,2.56-1.55-5.79,7.86-2.11-2.11-7.86,5.79-1.55,2.56,9.56,6.55,3.78v-7.56l-7-7,4.24-4.24,5.76,5.76,5.76-5.76,4.24,4.24-7,7v7.56l6.55-3.78,2.56-9.56,5.79,1.55-2.11,7.86,7.86,2.11-1.55,5.79-9.56-2.56-6.55,3.78,6.55,3.78,9.56-2.56,1.55,5.79Z" /></svg>