<svg xmlns="http://www.w3.org/2000/svg"  viewBox="0 0 64 64"><defs /><path  d="m60,22c0,2.21-1.79,4-4,4s-4-1.79-4-4,1.79-4,4-4,4,1.79,4,4Zm-11,8c-1.66,0-3,1.34-3,3s1.34,3,3,3,3-1.34,3-3-1.34-3-3-3Zm-32.01-4c-.54,2.43-.99,5.74-.99,10s.45,7.57.99,10h14.03c.54-2.43.99-5.74.99-10s-.45-7.57-.99-10h-14.03Zm23.33-4.06c.88,3.26,1.68,7.91,1.68,14.06s-.8,10.8-1.68,14.06c-1.06,3.91-3.68,5.94-7.73,5.94H15.42c-4.05,0-6.67-2.03-7.73-5.94-.88-3.26-1.68-7.91-1.68-14.06s.8-10.8,1.68-14.06c1.06-3.91,3.68-5.94,7.73-5.94h17.17c4.05,0,6.67,2.03,7.73,5.94Zm-4.32,14.06c0-5.61-.74-9.75-1.49-12.52-.27-.98-.92-1.48-1.93-1.48H15.42c-1.01,0-1.67.5-1.93,1.48-.76,2.77-1.49,6.91-1.49,12.52s.74,9.75,1.49,12.52c.27.98.92,1.48,1.93,1.48h17.15c1.01,0,1.67-.5,1.93-1.48.76-2.77,1.49-6.91,1.49-12.52Zm16-27c0-2.76-2.24-5-5-5s-5,2.24-5,5,2.24,5,5,5,5-2.24,5-5Z" /></svg>