<svg xmlns="http://www.w3.org/2000/svg"  viewBox="0 0 64 64"><defs /><path  d="m19.89,38.04l10.11,7.34v5.96l-4.99,3.62c-5.2-1.58-9.65-4.88-12.69-9.23l1.9-5.85,5.67-1.84Zm-1.24-3.8l3.86-11.88-3.5-4.82h-6.16c-3.05,4.02-4.86,9.04-4.86,14.47,0,.15,0,.31.01.46l4.98,3.62,5.67-1.84Zm19.59-14.23l3.5-4.82-1.9-5.86c-2.46-.85-5.1-1.32-7.85-1.32s-5.39.47-7.85,1.32l-1.9,5.86,3.5,4.82h12.49Zm12.9-2.47h-6.16l-3.5,4.82,3.86,11.88,5.67,1.84,4.98-3.62c0-.15.01-.31.01-.46,0-5.44-1.81-10.45-4.86-14.47Zm-7.04,20.51l-10.11,7.34v5.96l4.99,3.62c5.2-1.58,9.65-4.88,12.69-9.23l-1.9-5.85-5.67-1.84Zm-6.29-14.04h-11.62l-3.59,11.05,9.4,6.83,9.4-6.83-3.59-11.05Z" /></svg>