<svg xmlns="http://www.w3.org/2000/svg"  viewBox="0 0 64 64"><defs /><path  d="m23.89,34.21c-.66,1.31-.89,2.32-.89,3.79s.24,2.47.89,3.79l1.21,2.42c.66,1.31.89,2.32.89,3.79h0c0,1.47-.24,2.47-.89,3.79l-2.11,4.21h-14l-2.11-4.21c-.66-1.31-.89-2.32-.89-3.79h0c0-1.47.24-2.47.89-3.79l1.21-2.42c.66-1.31.89-2.32.89-3.79s-.24-2.47-.89-3.79l-1.21-2.42c-.66-1.31-.89-2.32-.89-3.79v-4.49c0-2.51.71-4.22,2.48-5.99l1.04-1.04c1.78-1.78,2.48-3.48,2.48-5.99v-.49h-2v-6h12v6h-2v.49c0,2.51.71,4.22,2.48,5.99l1.04,1.04c1.78,1.78,2.48,3.48,2.48,5.99v4.49c0,1.47-.24,2.47-.89,3.79l-1.21,2.42ZM60,8l-4,48h-22l-4-48h30Zm-23.48,6l.67,8h15.63l.67-8h-16.96Z" /></svg>