<svg xmlns="http://www.w3.org/2000/svg"  viewBox="0 0 64 64"><defs /><path  d="m53.11,39.32l3.89,7.79-3.58,1.79-3.89-7.79c-.42-.84-.85-1.11-1.79-1.11h-3.87c-.16,1.26-.46,2.42-.9,3.46l1.98,3.95c.76,1.52,1.06,2.77,1.06,4.47v8.11h-4v-8.11c0-1.07-.15-1.72-.63-2.68l-1.02-2.04c-2.05,1.82-4.89,2.84-8.35,2.84s-6.29-1.01-8.35-2.84l-1.02,2.04c-.48.96-.63,1.61-.63,2.68v8.11h-4v-8.11c0-1.7.3-2.95,1.06-4.47l1.98-3.95c-.44-1.05-.74-2.2-.9-3.46h-3.87c-.94,0-1.37.27-1.79,1.11l-3.89,7.79-3.58-1.79,3.89-7.79c1.1-2.2,2.91-3.32,5.37-3.32h3.74c0-1.45.18-2.78.52-4h-4.62c-2.32,0-4.01-.7-5.66-2.34l-4.24-4.24,2.83-2.83,4.24,4.24c.89.89,1.58,1.17,2.83,1.17h6.63c.26-.32.54-.62.83-.9l-6.63-5.8c-1.89-1.65-2.73-3.51-2.73-6.02V4h4v11.28c0,1.36.34,2.12,1.37,3.01l6.63,5.8v-2.09c0-3.7,2.3-6,6-6s6,2.3,6,6v2.09l6.63-5.8c1.02-.89,1.37-1.65,1.37-3.01V4h4v11.28c0,2.51-.84,4.37-2.73,6.02l-6.63,5.8c.29.28.57.58.83.9h6.63c1.25,0,1.94-.29,2.83-1.17l4.24-4.24,2.83,2.83-4.24,4.24c-1.64,1.64-3.33,2.34-5.66,2.34h-4.62c.34,1.22.52,2.55.52,4h3.74c2.46,0,4.27,1.12,5.37,3.32Z" /></svg>