<svg xmlns="http://www.w3.org/2000/svg"  viewBox="0 0 64 64"><defs /><path  d="m32,8c-13.25,0-24,10.75-24,24s10.75,24,24,24,24-10.75,24-24-10.75-24-24-24Zm0,6c9.82,0,17.79,7.86,17.98,17.64l-6.32-3.16c-2.13-1.06-3.88-1.48-6.26-1.48h-10.81c-2.38,0-4.13.41-6.26,1.48l-6.32,3.16c.2-9.77,8.16-17.64,17.98-17.64Zm-17.01,23.86l7.82-3.91c1.14,2.66,3.4,4.72,6.19,5.59v10.19c-6.55-1.1-11.89-5.73-14.01-11.87Zm20.01,11.87v-10.19c2.79-.88,5.04-2.94,6.19-5.59l7.82,3.91c-2.12,6.14-7.46,10.77-14.01,11.87Z" /></svg>