<svg xmlns="http://www.w3.org/2000/svg"  viewBox="0 0 64 64"><defs /><path  d="m54,41.32v1.68c0,9.11-5.89,15-15,15s-15-5.89-15-15v-1.42c-2.1-.61-3.81-1.91-5.17-3.95l-8.43-12.64c-1.59-2.39-2.4-4.99-2.4-7.51,0-5.73,4.45-11.48,12.56-11.48h1.44v6h-1.44c-6.61,0-6.56,5.32-6.56,5.49,0,1.34.47,2.78,1.4,4.16l8.43,12.64c.86,1.29,1.63,1.7,3.18,1.7s2.32-.41,3.18-1.7l8.43-12.64c.93-1.39,1.4-2.82,1.4-4.16,0-.17.04-5.49-6.56-5.49h-1.44v-6h1.44c8.14,0,12.56,5.76,12.56,11.48,0,2.52-.81,5.12-2.4,7.51l-8.43,12.64c-1.36,2.04-3.08,3.34-5.17,3.95v1.42c0,5.72,3.28,9,9,9s9-3.28,9-9v-1.68c-2.36-1.12-4-3.53-4-6.32,0-3.87,3.13-7,7-7s7,3.13,7,7c0,2.79-1.64,5.19-4,6.32Z" /></svg>