<svg xmlns="http://www.w3.org/2000/svg"  viewBox="0 0 64 64"><defs /><path  d="m51,38h-1v-10h-15v-4h1c5.55,0,9-3.45,9-9s-3.45-9-9-9h-8c-5.55,0-9,3.45-9,9s3.45,9,9,9h1v4h-15v10h-1c-5.55,0-9,3.45-9,9s3.45,9,9,9h8c5.55,0,9-3.45,9-9s-3.45-9-9-9h-1v-4h24v4h-1c-5.55,0-9,3.45-9,9s3.45,9,9,9h8c5.55,0,9-3.45,9-9s-3.45-9-9-9ZM25,15c0-1.85,1.15-3,3-3h8c1.85,0,3,1.15,3,3s-1.15,3-3,3h-8c-1.85,0-3-1.15-3-3Zm-1,32c0,1.85-1.15,3-3,3h-8c-1.85,0-3-1.15-3-3s1.15-3,3-3h8c1.85,0,3,1.15,3,3Zm27,3h-8c-1.85,0-3-1.15-3-3s1.15-3,3-3h8c1.85,0,3,1.15,3,3s-1.15,3-3,3Z" /></svg>