<svg xmlns="http://www.w3.org/2000/svg"  viewBox="0 0 64 64"><defs /><path  d="m50.28,8c-3.69,0-7.11,1.83-9.15,4.9l-3.25,4.88c-.93,1.39-2.48,2.23-4.16,2.23h-3.44c-1.68,0-3.23-.83-4.16-2.23l-3.25-4.88c-2.04-3.07-5.47-4.9-9.15-4.9h-5.72v6h5.72c1.68,0,3.23.83,4.16,2.23l3.25,4.88c.4.6.87,1.14,1.37,1.64-5.09,3.18-8.49,8.82-8.49,15.26,0,9.93,8.08,18,18,18s18-8.07,18-18c0-6.43-3.4-12.07-8.49-15.26.5-.5.97-1.04,1.37-1.64l3.25-4.88c.93-1.39,2.48-2.23,4.16-2.23h5.72v-6h-5.72Zm-18.28,42c-6.62,0-12-5.38-12-12s5.38-12,12-12,12,5.38,12,12-5.38,12-12,12Z" /></svg>