<svg xmlns="http://www.w3.org/2000/svg"  viewBox="0 0 64 64"><defs /><path  d="m35.24,32.2l12.53,3.13-.34,2.05c-.28,1.65-1.36,2.61-2.85,2.61-.3,0-.62-.04-.95-.12l-5.63-1.41v3.53l5.11,10.21c.59,1.18.89,2.47.89,3.79h-10v-22.83c0-.65.61-1.13,1.24-.97Zm16.43-3.56l-3.71-4.95c.01-.23.03-.46.03-.69,0-8.28-6.72-15-15-15s-15,6.72-15,15c0,5.75,3.24,10.75,8,13.26v6.74c-6,3-10,7.54-10,13h14v-23.62c0-2.42,1.96-4.38,4.38-4.38.36,0,.71.04,1.06.13l12.99,3.25,2.49-.62c.69-.17,1.07-.66,1.07-1.22,0-.29-.1-.6-.32-.89Z" /></svg>