<svg xmlns="http://www.w3.org/2000/svg"  viewBox="0 0 64 64"><defs /><path  d="m17.62,40.31l8.7,4.35c1.76.88,3.71,1.34,5.68,1.34s3.92-.46,5.68-1.34l8.7-4.35c4.06-2.03,6.62-6.18,6.62-10.71,0,0-.1-2-.39-3.15l-4.61-18.45H16l-4.61,18.45c-.26,1.03-.39,2.09-.39,3.15h0c0,4.54,2.56,8.68,6.62,10.71Zm4.38-2.31c-1.66,0-3-1.34-3-3s1.34-3,3-3,3,1.34,3,3-1.34,3-3,3Zm20,0c-1.66,0-3-1.34-3-3s1.34-3,3-3,3,1.34,3,3-1.34,3-3,3ZM20.68,14h22.63l2.74,10.97-14.06,7.03-14.06-7.03,2.74-10.97Zm25.32,36l5,10h-6.75l-2-4h-20.5l-2,4h-6.75l5-10h28Z" /></svg>