<svg xmlns="http://www.w3.org/2000/svg"  viewBox="0 0 64 64"><defs /><path  d="m21.32,7h-6.32L6,31h6.32l1.5-4h10.35l1.5,4h6.32L23,7h-1.68Zm-5.25,14l2.93-7.8,2.93,7.8h-5.85Zm4.61,22.31c3.12,3.12,7.22,4.69,11.31,4.69v6c-5.63,0-11.26-2.15-15.56-6.44l-2.44-2.44v8.89h-6v-19h19v6h-8.63l2.31,2.31Zm22.63-22.63c-3.12-3.12-7.22-4.69-11.31-4.69v-6c5.63,0,11.26,2.15,15.56,6.44l2.44,2.44v-8.89h6v19h-19v-6h8.63l-2.31-2.31Zm16.69,20.31v-6h-10v-3h-6v3h-10v6h3.98c.79,2.72,2.22,5.19,4.23,7.33-4.14,1.87-8.21,2.05-8.21,2.05l2.11,5.62c4.26-.76,7.9-2.09,10.89-3.87,2.99,1.78,6.63,3.11,10.89,3.87l2.11-5.62s-4.06-.19-8.21-2.05c2.01-2.14,3.44-4.61,4.23-7.33h3.98Zm-13,4.15c-1.15-1.13-2.15-2.49-2.84-4.15h5.69c-.7,1.66-1.69,3.02-2.84,4.15Z" /></svg>