<svg xmlns="http://www.w3.org/2000/svg"  viewBox="0 0 64 64"><defs /><path  d="m32,32c-4.32,0-7-2.68-7-7s2.68-7,7-7,7,2.68,7,7-2.68,7-7,7Zm0-18c1.73,0,3.41.26,4.99.72l2.31-5.58c-2.3-.74-4.76-1.14-7.31-1.14s-5,.4-7.31,1.14l2.31,5.58c1.59-.46,3.26-.72,4.99-.72Zm15.76,9.31l5.57-2.31c-2.29-4.42-5.91-8.04-10.33-10.33l-2.31,5.57c2.97,1.64,5.43,4.1,7.07,7.07Zm-26.77,17.32c2.56,3.27,6.54,5.37,11.01,5.37s8.45-2.11,11.01-5.37c-2.42-2.96-6.21-4.63-11.01-4.63s-8.59,1.66-11.01,4.63Zm2.32-24.38l-2.31-5.57c-4.42,2.29-8.04,5.91-10.33,10.33l5.57,2.31c1.64-2.97,4.1-5.42,7.07-7.07Zm31.56,8.45l-5.58,2.31c.46,1.59.72,3.26.72,4.99s-.26,3.41-.72,4.99l5.58,2.31c.74-2.3,1.14-4.76,1.14-7.31s-.4-5-1.14-7.31Zm-14.17,23.06l2.31,5.57c4.42-2.29,8.04-5.91,10.33-10.33l-5.57-2.31c-1.64,2.97-4.1,5.43-7.07,7.07Zm-8.69,2.24c-1.73,0-3.41-.26-4.99-.72l-2.31,5.58c2.3.74,4.76,1.14,7.31,1.14s5-.4,7.31-1.14l-2.31-5.58c-1.59.46-3.26.72-4.99.72Zm-15.76-9.31l-5.57,2.31c2.29,4.42,5.91,8.04,10.33,10.33l2.31-5.57c-2.97-1.64-5.43-4.1-7.07-7.07Zm-2.24-8.69c0-1.73.26-3.41.72-4.99l-5.58-2.31c-.74,2.3-1.14,4.76-1.14,7.31s.4,5,1.14,7.31l5.58-2.31c-.46-1.59-.72-3.26-.72-4.99Z" /></svg>