<svg xmlns="http://www.w3.org/2000/svg"  viewBox="0 0 64 64"><defs /><path  d="m58,32c0-4.04-3-7.37-6.89-7.91,1.01-1.34,1.62-3,1.62-4.81,0-4.42-3.58-8-8-8-1.81,0-3.47.61-4.81,1.62-.54-3.89-3.87-6.89-7.91-6.89s-7.37,3-7.91,6.89c-1.34-1.01-3-1.62-4.81-1.62-4.42,0-8,3.58-8,8,0,1.81.61,3.47,1.62,4.81-3.89.54-6.89,3.87-6.89,7.91s3,7.37,6.89,7.91c-1.01,1.34-1.62,3-1.62,4.81,0,4.42,3.58,8,8,8,1.81,0,3.47-.61,4.81-1.62.54,3.89,3.87,6.89,7.91,6.89s7.37-3,7.91-6.89c1.34,1.01,3,1.62,4.81,1.62,4.42,0,8-3.58,8-8,0-1.81-.61-3.47-1.62-4.81,3.89-.54,6.89-3.87,6.89-7.91Zm-29,12.24l-11-11,4.24-4.24,6.76,6.76,13.76-13.76,4.24,4.24-18,18Z" /></svg>