<svg xmlns="http://www.w3.org/2000/svg"  viewBox="0 0 64 64"><defs /><path  d="m58,29c0-5.72-3.18-11-9-11-2.02,0-3.68.42-5,1.19v-1.19c0-6.16-2.84-10-9-10-3.22,0-5.53,1.06-7,2.94-1.47-1.88-3.78-2.94-7-2.94-3.38,0-5.75,1.16-7.21,3.22-1.73-2.06-4.41-3.22-7.79-3.22v6c2.46,0,4,1.54,4,4v26h6v-26c0-2.46,1.54-4,4-4s4,1.54,4,4v26h6v-26c0-2.46,1.54-4,4-4s4,1.54,4,4v20h-4v6h4v4c0,4.94,3.06,8,8,8h6.76v-6h-6.76c-1.23,0-2-.77-2-2v-4.09c9.65-.89,14-8.23,14-14.91Zm-14,8.84v-9.84c0-2.46,1.54-4,4-4,2.63,0,4,2.27,4,5,0,3.6-2.45,7.98-8,8.84Z" /></svg>