<svg xmlns="http://www.w3.org/2000/svg"  viewBox="0 0 64 64"><defs /><path  d="m51.99,47.89s0,.07,0,.11c0,4.42-3.58,8-8,8s-8-3.58-8-8h-9.5l-3.84-3.84-3.25,3.25c.37.78.59,1.66.59,2.58,0,3.31-2.69,6-6,6s-6-2.69-6-6,2.69-6,6-6c.93,0,1.8.22,2.58.59l3.42-3.42v-5.17h-3L9,8l2.31-1.16c1.24-.62,2.19-.84,3.58-.84h.67c2,0,3.3.98,3.85,2.9l.97,3.39c.45,1.56.13,2.78-1.02,3.93l-1.37,1.37.4,1.41h.89c2,0,3.3.98,3.85,2.9l.03.1h14.86v4h-13.71l1.14,4h18.57c2.47,0,4,1.53,4,4s-1.53,4-4,4v2c2.9,0,5.43,1.55,6.84,3.86l4.95-3.3,2.22,3.33-6.01,4Z" /></svg>