<svg xmlns="http://www.w3.org/2000/svg"  viewBox="0 0 64 64"><defs /><path  d="m47,41l5.33,8,7.66-5.11-2.22-3.33-4.34,2.89-4.3-6.45h-5.14v-11c0-3.7-2.3-6-6-6h-17v-4c0-3.7-2.3-6-6-6h-5v4h5c1.23,0,2,.77,2,2v14.17c-6.23.96-11,6.33-11,12.83,0,7.18,5.82,13,13,13s13-5.82,13-13c0-.68-.07-1.35-.17-2h8.17v3.35c-2.33.82-4,3.04-4,5.65,0,3.31,2.69,6,6,6s6-2.69,6-6c0-2.61-1.67-4.83-4-5.65v-3.35h3Zm-28,11c-4.96,0-9-4.04-9-9,0-4.27,3-7.86,7-8.77v.77c0,3.7,2.3,6,6,6h4.77c.15.64.23,1.31.23,2,0,4.96-4.04,9-9,9Zm21-24h-19v-4h17c1.23,0,2,.77,2,2v2Z" /></svg>